<svg xmlns="http://www.w3.org/2000/svg" xmlns:xlink="http://www.w3.org/1999/xlink" xmlns:lucid="lucid" width="3415.5" height="1647.63"><g transform="translate(-2749.774089056369 -770.351404866475)" lucid:page-tab-id="0_0"><path d="M-2000 500h8500v2000h-8500z" fill="#f2f3f5"/><path d="M2751.77 858a12 12 0 0 1 12-12h3387.5a12 12 0 0 1 12 12v1545.98a12 12 0 0 1-12 12h-3387.5a12 12 0 0 1-12-12z" stroke="#635dff" stroke-width="4" fill="#fff"/><path d="M2751.77 784.35a12 12 0 0 1 12-12h378.47a12 12 0 0 1 12 12V822a12 12 0 0 1-12 12h-378.47a12 12 0 0 1-12-12z" stroke="#635dff" stroke-width="4" fill="#635dff"/><use xlink:href="#a" transform="matrix(1,0,0,1,2763.77408926512,784.3514047205712) translate(0 30.317274305555557)"/><use xlink:href="#b" transform="matrix(1,0,0,1,2763.77408926512,784.3514047205712) translate(232.89279513888889 30.317274305555557)"/><use xlink:href="#c" transform="matrix(1,0,0,1,2763.77408926512,784.3514047205712) translate(278.1618923611111 30.317274305555557)"/><path d="M3152.77 947h738.8v55h-738.8zM3151.77 1002h739.8v1313.98h-739.8z" fill="#fff"/><path d="M3891.58 1001v-54" stroke="#fff" stroke-opacity="0" stroke-width="2" fill="#fff" fill-opacity="0"/><path d="M3151.77 1002v-54M3150.77 947h740.8" stroke="#a9afb8" stroke-width="2" fill="#fff" fill-opacity="0"/><path d="M3891.58 1001v1313.98" stroke="#fff" stroke-opacity="0" stroke-width="2" fill="#fff" fill-opacity="0"/><path d="M3891.58 2314.98h-739.8M3151.77 2313.98v-1312M3151.77 1002h739.8" stroke="#a9afb8" stroke-width="2" fill="#fff" fill-opacity="0"/><use xlink:href="#d" transform="matrix(1,0,0,1,3171.77408926512,963.1946338872378) translate(319.125 14.6)"/><path d="M3892.58 947h714.95v55h-714.95z" fill="#f2f3f5"/><path d="M3891.58 1002h715.95v1313.98h-715.95z" fill="#fff"/><path d="M4607.53 1001v-54" stroke="#fff" stroke-opacity="0" stroke-width="2" fill="#fff" fill-opacity="0"/><path d="M3891.58 1002v-54" stroke="#f2f3f5" stroke-width="2" fill="#fff" fill-opacity="0"/><path d="M3890.58 947h716.95" stroke="#a9afb8" stroke-width="2" fill="#fff" fill-opacity="0"/><path d="M4607.53 1001v1313.98" stroke="#fff" stroke-opacity="0" stroke-width="2" fill="#fff" fill-opacity="0"/><path d="M4607.53 2314.98h-715.95" stroke="#a9afb8" stroke-width="2" fill="#fff" fill-opacity="0"/><path d="M3891.58 2313.98v-1312" stroke="#f2f3f5" stroke-width="2" fill="#fff" fill-opacity="0"/><path d="M3891.58 1002h715.95" stroke="#a9afb8" stroke-width="2" fill="#fff" fill-opacity="0"/><use xlink:href="#e" transform="matrix(1,0,0,1,3911.582420899562,963.1946338872378) translate(291.575 14.6)"/><path d="M4608.53 947h738.8v55h-738.8zM4607.53 1002h739.8v1313.98h-739.8z" fill="#fff"/><path d="M5347.33 1001v-54" stroke="#fff" stroke-opacity="0" stroke-width="2" fill="#fff" fill-opacity="0"/><path d="M4607.53 1002v-54" stroke="#f2f3f5" stroke-width="2" fill="#fff" fill-opacity="0"/><path d="M4606.53 947h740.8" stroke="#a9afb8" stroke-width="2" fill="#fff" fill-opacity="0"/><path d="M5347.33 1001v1313.98" stroke="#fff" stroke-opacity="0" stroke-width="2" fill="#fff" fill-opacity="0"/><path d="M5347.33 2314.98h-739.8" stroke="#a9afb8" stroke-width="2" fill="#fff" fill-opacity="0"/><path d="M4607.53 2313.98v-1312" stroke="#f2f3f5" stroke-width="2" fill="#fff" fill-opacity="0"/><path d="M4607.53 1002h739.8" stroke="#a9afb8" stroke-width="2" fill="#fff" fill-opacity="0"/><use xlink:href="#f" transform="matrix(1,0,0,1,4627.52596764257,963.1946338872378) translate(315.575 14.6)"/><path d="M5348.33 947h714.95v55h-714.95z" fill="#f2f3f5"/><path d="M5347.33 1002h715.95v1313.98h-715.95z" fill="#fff"/><path d="M6063.28 1001v-54" stroke="#a9afb8" stroke-width="2" fill="#fff" fill-opacity="0"/><path d="M5347.33 1002v-54" stroke="#f2f3f5" stroke-width="2" fill="#fff" fill-opacity="0"/><path d="M5346.33 947h716.95M6063.28 1001v1313.98M6063.28 2314.98h-715.95" stroke="#a9afb8" stroke-width="2" fill="#fff" fill-opacity="0"/><path d="M5347.33 2313.98v-1312" stroke="#f2f3f5" stroke-width="2" fill="#fff" fill-opacity="0"/><path d="M5347.33 1002h715.95" stroke="#a9afb8" stroke-width="2" fill="#fff" fill-opacity="0"/><use xlink:href="#g" transform="matrix(1,0,0,1,5367.334299277012,963.1946338872378) translate(294.075 14.6)"/><path d="M3151.77 1002h2911.5v52h-2911.5z" stroke="#a9afb8" stroke-width="2" fill="#f2f3f5"/><path d="M5905.9 1028a16 16 0 0 1 16-16h68a16 16 0 0 1 16 16 16 16 0 0 1-16 16h-68a16 16 0 0 1-16-16zM5955.9 1044l10 10-10 10-10-10z" fill="#fe7070"/><path d="M5955.9 1061v6m0 4v6m0 4.02v6m0 4v6m0 4v6.02m0 4v6m0 4v6m0 4.02v6m0 4v6m0 4v6.02m0 4v6m0 4v6m0 4v6.02m0 4v6m0 4v6m0 4.02v6m0 4v6m0 4v6.02m0 4v6m0 4v6m0 4.02v6m0 4v6m0 4v6.02m0 4v6m0 4v6m0 4v6.02m0 4v6m0 4v6.02m0 4v6m0 4v6m0 4v6.02m0 4v6m0 4v6.02m0 4v6m0 4v6m0 4v6.02m0 4v6m0 4v6m0 4.02v6m0 4v6m0 4v6.02m0 4v6m0 4v6m0 4.02v6m0 4v6m0 4v6.02m0 4v6m0 4v6m0 4.02v6m0 4v6m0 4v6m0 4.02v6m0 4v6m0 4v6.02m0 4v6m0 4v6m0 4.02v6m0 4v6m0 4v6.02m0 4v6m0 4v6m0 4.02v6m0 4v6m0 4v6.02m0 4v6m0 4v6m0 4.02v6m0 4v6m0 4v6.02m0 4v6m0 4v6m0 4.02v6m0 4v6m0 4v6.02m0 4v6m0 4v6m0 4v6.02m0 4v6m0 4v6m0 4.02v6m0 4v6m0 4v6.02m0 4v6m0 4v6m0 4.02v6m0 4v6m0 4v6.02m0 4v6m0 4v6m0 4v6.02m0 4v6m0 4v6.02m0 4v6m0 4v6m0 4v6.02m0 4v6m0 4v6.02m0 4v6m0 4v6m0 4v6.02m0 4v6m0 4v6m0 4.02v6m0 4v6m0 4v6.02m0 4v6m0 4v6m0 4.02v6m0 4v6m0 4v6.02m0 4v6m0 4v6m0 4v6.02m0 4v6m0 4v6m0 4.02v6m0 4v6m0 4v6.02m0 4v6m0 4v6m0 4.02v6m0 4v6m0 4v6.02m0 4v6m0 4v6m0 4.02v3-3m0-4v-6m0-4v-6.02m0-4v-6m0-4v-6m0-4.02v-6m0-4v-6m0-4v-6.02m0-4v-6m0-4v-6m0-4.02v-6m0-4v-6m0-4v-6.02m0-4v-6m0-4v-6m0-4.02v-6m0-4v-6m0-4v-6.02m0-4v-6m0-4v-6m0-4.02v-6m0-4v-6m0-4v-6.02m0-4v-6m0-4v-6m0-4v-6.02m0-4v-6m0-4v-6m0-4.02v-6m0-4v-6m0-4v-6.02m0-4v-6m0-4v-6m0-4.02v-6m0-4v-6m0-4v-6.02m0-4v-6m0-4v-6m0-4.02v-6m0-4v-6m0-4v-6.02m0-4v-6m0-4v-6m0-4.02v-6m0-4v-6m0-4v-6.02m0-4v-6m0-4v-6m0-4v-6.02m0-4v-6m0-4v-6m0-4.02v-6m0-4v-6m0-4v-6.02m0-4v-6m0-4v-6m0-4.02v-6m0-4v-6m0-4v-6.02m0-4v-6m0-4v-6m0-4v-6.02m0-4v-6m0-4v-6.02m0-4v-6m0-4v-6m0-4v-6.02m0-4v-6m0-4v-6.02m0-4v-6m0-4v-6m0-4v-6.02m0-4v-6m0-4v-6m0-4.02v-6m0-4v-6m0-4v-6.02m0-4v-6m0-4v-6m0-4.02v-6m0-4v-6m0-4v-6.02m0-4v-6m0-4v-6m0-4v-6.02m0-4v-6m0-4v-6m0-4.02v-6m0-4v-6m0-4v-6.02m0-4v-6m0-4v-6m0-4.02v-6m0-4v-6m0-4v-6.02m0-4v-6m0-4v-6m0-4.02v-6m0-4v-6m0-4v-6.02m0-4v-6m0-4v-6m0-4.02v-6m0-4v-6m0-4v-6.02m0-4v-6m0-4v-6m0-4.02v-6m0-4v-6m0-4v-6.02m0-4v-6m0-4v-6m0-4v-6.02m0-4v-6m0-4v-6m0-4.02v-6m0-4v-6m0-4v-6.02m0-4v-6m0-4v-6m0-4.02v-6m0-4v-6m0-4V1091m0-4v-6m0-4v-6m0-4V1061m0-4v-3 3" stroke="#fe7070" stroke-width="2" fill="none"/><use xlink:href="#h" transform="matrix(1,0,0,1,5925.886314008569,1017.8672608403627) translate(0.14100585937499233 16.589501953125)"/><use xlink:href="#i" transform="matrix(1,0,0,1,5925.886314008569,1017.8672608403627) translate(49.682578125000006 16.589501953125)"/><path d="M5667.06 1028a16 16 0 0 1 16-16h68.36a16 16 0 0 1 16 16 16 16 0 0 1-16 16h-68.36a16 16 0 0 1-16-16zM5717.24 1044l10 10-10 10-10-10z" fill="#fe7070"/><path d="M5717.24 1061v6m0 4v6m0 4.02v6m0 4v6m0 4v6.02m0 4v6m0 4v6m0 4.02v6m0 4v6m0 4v6.02m0 4v6m0 4v6m0 4v6.02m0 4v6m0 4v6m0 4.02v6m0 4v6m0 4v6.02m0 4v6m0 4v6m0 4.02v6m0 4v6m0 4v6.02m0 4v6m0 4v6m0 4v6.02m0 4v6m0 4v6.02m0 4v6m0 4v6m0 4v6.02m0 4v6m0 4v6.02m0 4v6m0 4v6m0 4v6.02m0 4v6m0 4v6m0 4.02v6m0 4v6m0 4v6.02m0 4v6m0 4v6m0 4.02v6m0 4v6m0 4v6.02m0 4v6m0 4v6m0 4.02v6m0 4v6m0 4v6m0 4.02v6m0 4v6m0 4v6.02m0 4v6m0 4v6m0 4.02v6m0 4v6m0 4v6.02m0 4v6m0 4v6m0 4.02v6m0 4v6m0 4v6.02m0 4v6m0 4v6m0 4.02v6m0 4v6m0 4v6.02m0 4v6m0 4v6m0 4.02v6m0 4v6m0 4v6.02m0 4v6m0 4v6m0 4v6.02m0 4v6m0 4v6m0 4.02v6m0 4v6m0 4v6.02m0 4v6m0 4v6m0 4.02v6m0 4v6m0 4v6.02m0 4v6m0 4v6m0 4v6.02m0 4v6m0 4v6.02m0 4v6m0 4v6m0 4v6.02m0 4v6m0 4v6.02m0 4v6m0 4v6m0 4v6.02m0 4v6m0 4v6m0 4.02v6m0 4v6m0 4v6.02m0 4v6m0 4v6m0 4.02v6m0 4v6m0 4v6.02m0 4v6m0 4v6m0 4v6.02m0 4v6m0 4v6m0 4.02v6m0 4v6m0 4v6.02m0 4v6m0 4v6m0 4.02v6m0 4v6m0 4v6.02m0 4v6m0 4v6m0 4.02v3-3m0-4v-6m0-4v-6.02m0-4v-6m0-4v-6m0-4.02v-6m0-4v-6m0-4v-6.02m0-4v-6m0-4v-6m0-4.02v-6m0-4v-6m0-4v-6.02m0-4v-6m0-4v-6m0-4.02v-6m0-4v-6m0-4v-6.02m0-4v-6m0-4v-6m0-4.02v-6m0-4v-6m0-4v-6.02m0-4v-6m0-4v-6m0-4v-6.02m0-4v-6m0-4v-6m0-4.02v-6m0-4v-6m0-4v-6.02m0-4v-6m0-4v-6m0-4.02v-6m0-4v-6m0-4v-6.02m0-4v-6m0-4v-6m0-4.02v-6m0-4v-6m0-4v-6.02m0-4v-6m0-4v-6m0-4.02v-6m0-4v-6m0-4v-6.02m0-4v-6m0-4v-6m0-4v-6.02m0-4v-6m0-4v-6m0-4.02v-6m0-4v-6m0-4v-6.02m0-4v-6m0-4v-6m0-4.02v-6m0-4v-6m0-4v-6.02m0-4v-6m0-4v-6m0-4v-6.02m0-4v-6m0-4v-6.02m0-4v-6m0-4v-6m0-4v-6.02m0-4v-6m0-4v-6.02m0-4v-6m0-4v-6m0-4v-6.02m0-4v-6m0-4v-6m0-4.02v-6m0-4v-6m0-4v-6.02m0-4v-6m0-4v-6m0-4.02v-6m0-4v-6m0-4v-6.02m0-4v-6m0-4v-6m0-4v-6.02m0-4v-6m0-4v-6m0-4.02v-6m0-4v-6m0-4v-6.02m0-4v-6m0-4v-6m0-4.02v-6m0-4v-6m0-4v-6.02m0-4v-6m0-4v-6m0-4.02v-6m0-4v-6m0-4v-6.02m0-4v-6m0-4v-6m0-4.02v-6m0-4v-6m0-4v-6.02m0-4v-6m0-4v-6m0-4.02v-6m0-4v-6m0-4v-6.02m0-4v-6m0-4v-6m0-4v-6.02m0-4v-6m0-4v-6m0-4.02v-6m0-4v-6m0-4v-6.02m0-4v-6m0-4v-6m0-4.02v-6m0-4v-6m0-4V1091m0-4v-6m0-4v-6m0-4V1061m0-4v-3 3" stroke="#fe7070" stroke-width="2" fill="none"/><use xlink:href="#h" transform="matrix(1,0,0,1,5687.055691656733,1017.8672608403627) translate(0.32222656249999204 16.589501953125)"/><use xlink:href="#j" transform="matrix(1,0,0,1,5687.055691656733,1017.8672608403627) translate(49.863798828125006 16.589501953125)"/><path d="M4999.02 1028a16 16 0 0 1 16-16h68a16 16 0 0 1 16 16 16 16 0 0 1-16 16h-68a16 16 0 0 1-16-16zM5049.02 1044l10 10-10 10-10-10z" fill="#fe7070"/><path d="M5049.02 1061v6m0 4v6m0 4.02v6m0 4v6m0 4v6.02m0 4v6m0 4v6m0 4.02v6m0 4v6m0 4v6.02m0 4v6m0 4v6m0 4v6.02m0 4v6m0 4v6m0 4.02v6m0 4v6m0 4v6.02m0 4v6m0 4v6m0 4.02v6m0 4v6m0 4v6.02m0 4v6m0 4v6m0 4v6.02m0 4v6m0 4v6.02m0 4v6m0 4v6m0 4v6.02m0 4v6m0 4v6.02m0 4v6m0 4v6m0 4v6.02m0 4v6m0 4v6m0 4.02v6m0 4v6m0 4v6.02m0 4v6m0 4v6m0 4.02v6m0 4v6m0 4v6.02m0 4v6m0 4v6m0 4.02v6m0 4v6m0 4v6m0 4.02v6m0 4v6m0 4v6.02m0 4v6m0 4v6m0 4.02v6m0 4v6m0 4v6.02m0 4v6m0 4v6m0 4.02v6m0 4v6m0 4v6.02m0 4v6m0 4v6m0 4.02v6m0 4v6m0 4v6.02m0 4v6m0 4v6m0 4.02v6m0 4v6m0 4v6.02m0 4v6m0 4v6m0 4v6.02m0 4v6m0 4v6m0 4.02v6m0 4v6m0 4v6.02m0 4v6m0 4v6m0 4.02v6m0 4v6m0 4v6.02m0 4v6m0 4v6m0 4v6.02m0 4v6m0 4v6.02m0 4v6m0 4v6m0 4v6.02m0 4v6m0 4v6.02m0 4v6m0 4v6m0 4v6.02m0 4v6m0 4v6m0 4.02v6m0 4v6m0 4v6.02m0 4v6m0 4v6m0 4.02v6m0 4v6m0 4v6.02m0 4v6m0 4v6m0 4v6.02m0 4v6m0 4v6m0 4.02v6m0 4v6m0 4v6.02m0 4v6m0 4v6m0 4.02v6m0 4v6m0 4v6.02m0 4v6m0 4v6m0 4.02v3-3m0-4v-6m0-4v-6.02m0-4v-6m0-4v-6m0-4.02v-6m0-4v-6m0-4v-6.02m0-4v-6m0-4v-6m0-4.02v-6m0-4v-6m0-4v-6.02m0-4v-6m0-4v-6m0-4.02v-6m0-4v-6m0-4v-6.02m0-4v-6m0-4v-6m0-4.02v-6m0-4v-6m0-4v-6.02m0-4v-6m0-4v-6m0-4v-6.02m0-4v-6m0-4v-6m0-4.02v-6m0-4v-6m0-4v-6.02m0-4v-6m0-4v-6m0-4.02v-6m0-4v-6m0-4v-6.02m0-4v-6m0-4v-6m0-4.02v-6m0-4v-6m0-4v-6.02m0-4v-6m0-4v-6m0-4.02v-6m0-4v-6m0-4v-6.02m0-4v-6m0-4v-6m0-4v-6.02m0-4v-6m0-4v-6m0-4.02v-6m0-4v-6m0-4v-6.02m0-4v-6m0-4v-6m0-4.02v-6m0-4v-6m0-4v-6.02m0-4v-6m0-4v-6m0-4v-6.02m0-4v-6m0-4v-6.02m0-4v-6m0-4v-6m0-4v-6.02m0-4v-6m0-4v-6.02m0-4v-6m0-4v-6m0-4v-6.02m0-4v-6m0-4v-6m0-4.02v-6m0-4v-6m0-4v-6.02m0-4v-6m0-4v-6m0-4.02v-6m0-4v-6m0-4v-6.02m0-4v-6m0-4v-6m0-4v-6.02m0-4v-6m0-4v-6m0-4.02v-6m0-4v-6m0-4v-6.02m0-4v-6m0-4v-6m0-4.02v-6m0-4v-6m0-4v-6.02m0-4v-6m0-4v-6m0-4.02v-6m0-4v-6m0-4v-6.02m0-4v-6m0-4v-6m0-4.02v-6m0-4v-6m0-4v-6.02m0-4v-6m0-4v-6m0-4.02v-6m0-4v-6m0-4v-6.02m0-4v-6m0-4v-6m0-4v-6.02m0-4v-6m0-4v-6m0-4.02v-6m0-4v-6m0-4v-6.02m0-4v-6m0-4v-6m0-4.02v-6m0-4v-6m0-4V1091m0-4v-6m0-4v-6m0-4V1061m0-4v-3 3" stroke="#fe7070" stroke-width="2" fill="none"/><use xlink:href="#h" transform="matrix(1,0,0,1,5019.024488134091,1017.8672608403627) translate(0.059267578124991616 16.589501953125)"/><use xlink:href="#k" transform="matrix(1,0,0,1,5019.024488134091,1017.8672608403627) translate(49.60083984375001 16.589501953125)"/><path d="M4330.8 1028a16 16 0 0 1 16-16h68a16 16 0 0 1 16 16 16 16 0 0 1-16 16h-68a16 16 0 0 1-16-16zM4380.8 1044l10 10-10 10-10-10z" fill="#fe7070"/><path d="M4380.8 1061v6m0 4v6m0 4.02v6m0 4v6m0 4v6.02m0 4v6m0 4v6m0 4.02v6m0 4v6m0 4v6.02m0 4v6m0 4v6m0 4v6.02m0 4v6m0 4v6m0 4.02v6m0 4v6m0 4v6.02m0 4v6m0 4v6m0 4.02v6m0 4v6m0 4v6.02m0 4v6m0 4v6m0 4v6.02m0 4v6m0 4v6.02m0 4v6m0 4v6m0 4v6.02m0 4v6m0 4v6.02m0 4v6m0 4v6m0 4v6.02m0 4v6m0 4v6m0 4.02v6m0 4v6m0 4v6.02m0 4v6m0 4v6m0 4.02v6m0 4v6m0 4v6.02m0 4v6m0 4v6m0 4.02v6m0 4v6m0 4v6m0 4.02v6m0 4v6m0 4v6.02m0 4v6m0 4v6m0 4.02v6m0 4v6m0 4v6.02m0 4v6m0 4v6m0 4.02v6m0 4v6m0 4v6.02m0 4v6m0 4v6m0 4.02v6m0 4v6m0 4v6.02m0 4v6m0 4v6m0 4.02v6m0 4v6m0 4v6.02m0 4v6m0 4v6m0 4v6.02m0 4v6m0 4v6m0 4.02v6m0 4v6m0 4v6.02m0 4v6m0 4v6m0 4.02v6m0 4v6m0 4v6.02m0 4v6m0 4v6m0 4v6.02m0 4v6m0 4v6.02m0 4v6m0 4v6m0 4v6.02m0 4v6m0 4v6.02m0 4v6m0 4v6m0 4v6.02m0 4v6m0 4v6m0 4.02v6m0 4v6m0 4v6.02m0 4v6m0 4v6m0 4.02v6m0 4v6m0 4v6.02m0 4v6m0 4v6m0 4v6.02m0 4v6m0 4v6m0 4.02v6m0 4v6m0 4v6.02m0 4v6m0 4v6m0 4.02v6m0 4v6m0 4v6.02m0 4v6m0 4v6m0 4.02v3-3m0-4v-6m0-4v-6.02m0-4v-6m0-4v-6m0-4.02v-6m0-4v-6m0-4v-6.02m0-4v-6m0-4v-6m0-4.02v-6m0-4v-6m0-4v-6.02m0-4v-6m0-4v-6m0-4.02v-6m0-4v-6m0-4v-6.02m0-4v-6m0-4v-6m0-4.02v-6m0-4v-6m0-4v-6.02m0-4v-6m0-4v-6m0-4v-6.02m0-4v-6m0-4v-6m0-4.02v-6m0-4v-6m0-4v-6.02m0-4v-6m0-4v-6m0-4.02v-6m0-4v-6m0-4v-6.02m0-4v-6m0-4v-6m0-4.02v-6m0-4v-6m0-4v-6.02m0-4v-6m0-4v-6m0-4.02v-6m0-4v-6m0-4v-6.02m0-4v-6m0-4v-6m0-4v-6.02m0-4v-6m0-4v-6m0-4.02v-6m0-4v-6m0-4v-6.02m0-4v-6m0-4v-6m0-4.02v-6m0-4v-6m0-4v-6.02m0-4v-6m0-4v-6m0-4v-6.02m0-4v-6m0-4v-6.02m0-4v-6m0-4v-6m0-4v-6.02m0-4v-6m0-4v-6.02m0-4v-6m0-4v-6m0-4v-6.02m0-4v-6m0-4v-6m0-4.02v-6m0-4v-6m0-4v-6.02m0-4v-6m0-4v-6m0-4.02v-6m0-4v-6m0-4v-6.02m0-4v-6m0-4v-6m0-4v-6.02m0-4v-6m0-4v-6m0-4.02v-6m0-4v-6m0-4v-6.02m0-4v-6m0-4v-6m0-4.02v-6m0-4v-6m0-4v-6.02m0-4v-6m0-4v-6m0-4.02v-6m0-4v-6m0-4v-6.02m0-4v-6m0-4v-6m0-4.02v-6m0-4v-6m0-4v-6.02m0-4v-6m0-4v-6m0-4.02v-6m0-4v-6m0-4v-6.02m0-4v-6m0-4v-6m0-4v-6.02m0-4v-6m0-4v-6m0-4.02v-6m0-4v-6m0-4v-6.02m0-4v-6m0-4v-6m0-4.02v-6m0-4v-6m0-4V1091m0-4v-6m0-4v-6m0-4V1061m0-4v-3 3" stroke="#fe7070" stroke-width="2" fill="none"/><use xlink:href="#h" transform="matrix(1,0,0,1,4350.8105111739505,1017.8672608403627) translate(0.12465820312499432 16.589501953125)"/><use xlink:href="#l" transform="matrix(1,0,0,1,4350.8105111739505,1017.8672608403627) translate(49.66623046875001 16.589501953125)"/><path d="M3829.65 1028a16 16 0 0 1 16-16h68a16 16 0 0 1 16 16 16 16 0 0 1-16 16h-68a16 16 0 0 1-16-16zM3879.65 1044l10 10-10 10-10-10z" fill="#00c2a8"/><path d="M3879.65 1061v6m0 4v6m0 4.02v6m0 4v6m0 4v6.02m0 4v6m0 4v6m0 4.02v6m0 4v6m0 4v6.02m0 4v6m0 4v6m0 4v6.02m0 4v6m0 4v6m0 4.02v6m0 4v6m0 4v6.02m0 4v6m0 4v6m0 4.02v6m0 4v6m0 4v6.02m0 4v6m0 4v6m0 4v6.02m0 4v6m0 4v6.02m0 4v6m0 4v6m0 4v6.02m0 4v6m0 4v6.02m0 4v6m0 4v6m0 4v6.02m0 4v6m0 4v6m0 4.02v6m0 4v6m0 4v6.02m0 4v6m0 4v6m0 4.02v6m0 4v6m0 4v6.02m0 4v6m0 4v6m0 4.02v6m0 4v6m0 4v6m0 4.02v6m0 4v6m0 4v6.02m0 4v6m0 4v6m0 4.02v6m0 4v6m0 4v6.02m0 4v6m0 4v6m0 4.02v6m0 4v6m0 4v6.02m0 4v6m0 4v6m0 4.02v6m0 4v6m0 4v6.02m0 4v6m0 4v6m0 4.02v6m0 4v6m0 4v6.02m0 4v6m0 4v6m0 4v6.02m0 4v6m0 4v6m0 4.02v6m0 4v6m0 4v6.02m0 4v6m0 4v6m0 4.02v6m0 4v6m0 4v6.02m0 4v6m0 4v6m0 4v6.02m0 4v6m0 4v6.02m0 4v6m0 4v6m0 4v6.02m0 4v6m0 4v6.02m0 4v6m0 4v6m0 4v6.02m0 4v6m0 4v6m0 4.02v6m0 4v6m0 4v6.02m0 4v6m0 4v6m0 4.02v6m0 4v6m0 4v6.02m0 4v6m0 4v6m0 4v6.02m0 4v6m0 4v6m0 4.02v6m0 4v6m0 4v6.02m0 4v6m0 4v6m0 4.02v6m0 4v6m0 4v6.02m0 4v6m0 4v6m0 4.02v3-3m0-4v-6m0-4v-6.02m0-4v-6m0-4v-6m0-4.02v-6m0-4v-6m0-4v-6.02m0-4v-6m0-4v-6m0-4.02v-6m0-4v-6m0-4v-6.02m0-4v-6m0-4v-6m0-4.02v-6m0-4v-6m0-4v-6.02m0-4v-6m0-4v-6m0-4.02v-6m0-4v-6m0-4v-6.02m0-4v-6m0-4v-6m0-4v-6.02m0-4v-6m0-4v-6m0-4.02v-6m0-4v-6m0-4v-6.02m0-4v-6m0-4v-6m0-4.02v-6m0-4v-6m0-4v-6.02m0-4v-6m0-4v-6m0-4.02v-6m0-4v-6m0-4v-6.02m0-4v-6m0-4v-6m0-4.02v-6m0-4v-6m0-4v-6.02m0-4v-6m0-4v-6m0-4v-6.02m0-4v-6m0-4v-6m0-4.02v-6m0-4v-6m0-4v-6.02m0-4v-6m0-4v-6m0-4.02v-6m0-4v-6m0-4v-6.02m0-4v-6m0-4v-6m0-4v-6.02m0-4v-6m0-4v-6.02m0-4v-6m0-4v-6m0-4v-6.02m0-4v-6m0-4v-6.02m0-4v-6m0-4v-6m0-4v-6.02m0-4v-6m0-4v-6m0-4.02v-6m0-4v-6m0-4v-6.02m0-4v-6m0-4v-6m0-4.02v-6m0-4v-6m0-4v-6.02m0-4v-6m0-4v-6m0-4v-6.02m0-4v-6m0-4v-6m0-4.02v-6m0-4v-6m0-4v-6.02m0-4v-6m0-4v-6m0-4.02v-6m0-4v-6m0-4v-6.02m0-4v-6m0-4v-6m0-4.02v-6m0-4v-6m0-4v-6.02m0-4v-6m0-4v-6m0-4.02v-6m0-4v-6m0-4v-6.02m0-4v-6m0-4v-6m0-4.02v-6m0-4v-6m0-4v-6.02m0-4v-6m0-4v-6m0-4v-6.02m0-4v-6m0-4v-6m0-4.02v-6m0-4v-6m0-4v-6.02m0-4v-6m0-4v-6m0-4.02v-6m0-4v-6m0-4V1091m0-4v-6m0-4v-6m0-4V1061m0-4v-3 3" stroke="#00c2a8" stroke-width="2" fill="none"/><path d="M3829.65 1028a16 16 0 0 1 16-16h68a16 16 0 0 1 16 16 16 16 0 0 1-16 16h-68a16 16 0 0 1-16-16zM3879.65 1044l10 10-10 10-10-10z" fill="#fe7070"/><path d="M3879.65 1061v6m0 4v6m0 4.02v6m0 4v6m0 4v6.02m0 4v6m0 4v6m0 4.02v6m0 4v6m0 4v6.02m0 4v6m0 4v6m0 4v6.02m0 4v6m0 4v6m0 4.02v6m0 4v6m0 4v6.02m0 4v6m0 4v6m0 4.02v6m0 4v6m0 4v6.02m0 4v6m0 4v6m0 4v6.02m0 4v6m0 4v6.02m0 4v6m0 4v6m0 4v6.02m0 4v6m0 4v6.02m0 4v6m0 4v6m0 4v6.02m0 4v6m0 4v6m0 4.02v6m0 4v6m0 4v6.02m0 4v6m0 4v6m0 4.02v6m0 4v6m0 4v6.02m0 4v6m0 4v6m0 4.02v6m0 4v6m0 4v6m0 4.02v6m0 4v6m0 4v6.02m0 4v6m0 4v6m0 4.02v6m0 4v6m0 4v6.02m0 4v6m0 4v6m0 4.02v6m0 4v6m0 4v6.02m0 4v6m0 4v6m0 4.02v6m0 4v6m0 4v6.02m0 4v6m0 4v6m0 4.02v6m0 4v6m0 4v6.02m0 4v6m0 4v6m0 4v6.02m0 4v6m0 4v6m0 4.02v6m0 4v6m0 4v6.02m0 4v6m0 4v6m0 4.02v6m0 4v6m0 4v6.02m0 4v6m0 4v6m0 4v6.02m0 4v6m0 4v6.02m0 4v6m0 4v6m0 4v6.02m0 4v6m0 4v6.02m0 4v6m0 4v6m0 4v6.02m0 4v6m0 4v6m0 4.02v6m0 4v6m0 4v6.02m0 4v6m0 4v6m0 4.02v6m0 4v6m0 4v6.02m0 4v6m0 4v6m0 4v6.02m0 4v6m0 4v6m0 4.02v6m0 4v6m0 4v6.02m0 4v6m0 4v6m0 4.02v6m0 4v6m0 4v6.02m0 4v6m0 4v6m0 4.02v3-3m0-4v-6m0-4v-6.02m0-4v-6m0-4v-6m0-4.02v-6m0-4v-6m0-4v-6.02m0-4v-6m0-4v-6m0-4.02v-6m0-4v-6m0-4v-6.02m0-4v-6m0-4v-6m0-4.02v-6m0-4v-6m0-4v-6.02m0-4v-6m0-4v-6m0-4.02v-6m0-4v-6m0-4v-6.02m0-4v-6m0-4v-6m0-4v-6.02m0-4v-6m0-4v-6m0-4.02v-6m0-4v-6m0-4v-6.02m0-4v-6m0-4v-6m0-4.02v-6m0-4v-6m0-4v-6.02m0-4v-6m0-4v-6m0-4.02v-6m0-4v-6m0-4v-6.02m0-4v-6m0-4v-6m0-4.02v-6m0-4v-6m0-4v-6.02m0-4v-6m0-4v-6m0-4v-6.02m0-4v-6m0-4v-6m0-4.02v-6m0-4v-6m0-4v-6.02m0-4v-6m0-4v-6m0-4.02v-6m0-4v-6m0-4v-6.02m0-4v-6m0-4v-6m0-4v-6.02m0-4v-6m0-4v-6.02m0-4v-6m0-4v-6m0-4v-6.02m0-4v-6m0-4v-6.02m0-4v-6m0-4v-6m0-4v-6.02m0-4v-6m0-4v-6m0-4.02v-6m0-4v-6m0-4v-6.02m0-4v-6m0-4v-6m0-4.02v-6m0-4v-6m0-4v-6.02m0-4v-6m0-4v-6m0-4v-6.02m0-4v-6m0-4v-6m0-4.02v-6m0-4v-6m0-4v-6.02m0-4v-6m0-4v-6m0-4.02v-6m0-4v-6m0-4v-6.02m0-4v-6m0-4v-6m0-4.02v-6m0-4v-6m0-4v-6.02m0-4v-6m0-4v-6m0-4.02v-6m0-4v-6m0-4v-6.02m0-4v-6m0-4v-6m0-4.02v-6m0-4v-6m0-4v-6.02m0-4v-6m0-4v-6m0-4v-6.02m0-4v-6m0-4v-6m0-4.02v-6m0-4v-6m0-4v-6.02m0-4v-6m0-4v-6m0-4.02v-6m0-4v-6m0-4V1091m0-4v-6m0-4v-6m0-4V1061m0-4v-3 3" stroke="#fe7070" stroke-width="2" fill="none"/><use xlink:href="#h" transform="matrix(1,0,0,1,3849.650028453845,1017.8672608403627) translate(1.8248144531249935 16.589501953125)"/><use xlink:href="#m" transform="matrix(1,0,0,1,3849.650028453845,1017.8672608403627) translate(51.36638671875001 16.589501953125)"/><path d="M2852.77 1055h299v422h-299z" fill="#e08fff"/><path d="M3151.77 1054h2911.5v423h-2911.5z" fill="#fff" fill-opacity="0"/><path d="M2851.77 1054h300v422h-300zM6063.28 1053v423M6063.28 1476h-2911.5M3151.77 1475v-421M3151.77 1054h2911.5" stroke="#a9afb8" stroke-width="2" fill="#fff" fill-opacity="0"/><use xlink:href="#n" transform="matrix(1,0,0,1,2871.77408926512,1255.892680762238) translate(79.86666666666667 13.2)"/><path d="M3489.27 1077a6 6 0 0 1 6-6h172.14a6 6 0 0 1 6 6v82.5a6 6 0 0 1-6 6h-172.13a6 6 0 0 1-6-6z" stroke="#ba23f6" stroke-width="2" fill="#ba23f6"/><path d="M3495.27 1077a6 6 0 0 1 6-6h166.14a6 6 0 0 1 6 6v82.5a6 6 0 0 1-6 6h-166.13a6 6 0 0 1-6-6z" stroke="#ba23f6" stroke-width="2" fill="#fff"/><use xlink:href="#o" transform="matrix(1,0,0,1,3512.267556234334,1085.9946338872378) translate(0 17.4375)"/><use xlink:href="#p" transform="matrix(1,0,0,1,3512.267556234334,1085.9946338872378) translate(85.921875 17.4375)"/><use xlink:href="#q" transform="matrix(1,0,0,1,3512.267556234334,1085.9946338872378) translate(0 39.216796875)"/><path d="M3656.32 1189.5a6 6 0 0 1 6-6h172.15a6 6 0 0 1 6 6v82.5a6 6 0 0 1-6 6h-172.15a6 6 0 0 1-6-6z" stroke="#ba23f6" stroke-width="2" fill="#ba23f6"/><path d="M3662.32 1189.5a6 6 0 0 1 6-6h166.15a6 6 0 0 1 6 6v82.5a6 6 0 0 1-6 6h-166.15a6 6 0 0 1-6-6z" stroke="#ba23f6" stroke-width="2" fill="#fff"/><use xlink:href="#r" transform="matrix(1,0,0,1,3679.321050474369,1198.4926807622378) translate(0 17.4375)"/><use xlink:href="#s" transform="matrix(1,0,0,1,3679.321050474369,1198.4926807622378) translate(0 39.216796875)"/><use xlink:href="#t" transform="matrix(1,0,0,1,3679.321050474369,1198.4926807622378) translate(26.876953125 39.216796875)"/><path d="M5732.56 1189.5a6 6 0 0 1 6-6h219.87a6 6 0 0 1 6 6v61a6 6 0 0 1-6 6h-219.87a6 6 0 0 1-6-6z" stroke="#ba23f6" stroke-width="2" fill="#ba23f6"/><path d="M5738.56 1189.5a6 6 0 0 1 6-6h213.87a6 6 0 0 1 6 6v61a6 6 0 0 1-6 6h-213.87a6 6 0 0 1-6-6z" stroke="#ba23f6" stroke-width="2" fill="#fff"/><use xlink:href="#u" transform="matrix(1,0,0,1,5755.557336029093,1198.4926807622378) translate(0 17.4375)"/><use xlink:href="#v" transform="matrix(1,0,0,1,5755.557336029093,1198.4926807622378) translate(123.5478515625 17.4375)"/><path d="M3727.9 1302a6 6 0 0 1 6-6h315.35a6 6 0 0 1 6 6v61a6 6 0 0 1-6 6H3733.9a6 6 0 0 1-6-6z" stroke="#ba23f6" stroke-width="2" fill="#ba23f6"/><path d="M3733.9 1302a6 6 0 0 1 6-6h309.35a6 6 0 0 1 6 6v61a6 6 0 0 1-6 6H3739.9a6 6 0 0 1-6-6z" stroke="#ba23f6" stroke-width="2" fill="#fff"/><use xlink:href="#w" transform="matrix(1,0,0,1,3750.91540514867,1310.9907276372378) translate(0 17.4375)"/><use xlink:href="#s" transform="matrix(1,0,0,1,3750.91540514867,1310.9907276372378) translate(124.48828125 17.4375)"/><use xlink:href="#x" transform="matrix(1,0,0,1,3750.91540514867,1310.9907276372378) translate(151.365234375 17.4375)"/><path d="M3894.97 1393a6 6 0 0 1 6-6h148.28a6 6 0 0 1 6 6v61a6 6 0 0 1-6 6h-148.28a6 6 0 0 1-6-6z" stroke="#ba23f6" stroke-width="2" fill="#ba23f6"/><path d="M3900.97 1393a6 6 0 0 1 6-6h142.28a6 6 0 0 1 6 6v61a6 6 0 0 1-6 6h-142.28a6 6 0 0 1-6-6z" stroke="#ba23f6" stroke-width="2" fill="#fff"/><use xlink:href="#y" transform="matrix(1,0,0,1,3917.9688993887053,1401.9907276372378) translate(0 17.4375)"/><path d="M2852.77 1478h299v240h-299z" fill="#00c2a8"/><path d="M3151.77 1477h2911.5v241h-2911.5z" fill="#fff" fill-opacity="0"/><path d="M2851.77 1477h300v240h-300zM6063.28 1476v241M6063.28 1717h-2911.5M3151.77 1716v-239M3151.77 1477h2911.5" stroke="#a9afb8" stroke-width="2" fill="#fff" fill-opacity="0"/><use xlink:href="#z" transform="matrix(1,0,0,1,2871.77408926512,1587.888774512238) translate(103.4 13.2)"/><path d="M3894.97 1500a6 6 0 0 1 6-6h219.87a6 6 0 0 1 6 6v82.5a6 6 0 0 1-6 6h-219.87a6 6 0 0 1-6-6z" stroke="#00c2a8" stroke-width="2" fill="#00c2a8"/><path d="M3900.97 1500a6 6 0 0 1 6-6h213.87a6 6 0 0 1 6 6v82.5a6 6 0 0 1-6 6h-213.87a6 6 0 0 1-6-6z" stroke="#00c2a8" stroke-width="2" fill="#fff"/><use xlink:href="#A" transform="matrix(1,0,0,1,3917.9688993887053,1508.9907276372378) translate(0 17.4375)"/><use xlink:href="#B" transform="matrix(1,0,0,1,3917.9688993887053,1508.9907276372378) translate(99.6064453125 17.4375)"/><use xlink:href="#C" transform="matrix(1,0,0,1,3917.9688993887053,1508.9907276372378) translate(0 39.216796875)"/><path d="M4062.02 1612.5a6 6 0 0 1 6-6h219.88a6 6 0 0 1 6 6v82.5a6 6 0 0 1-6 6h-219.88a6 6 0 0 1-6-6z" stroke="#00c2a8" stroke-width="2" fill="#00c2a8"/><path d="M4068.02 1612.5a6 6 0 0 1 6-6h213.88a6 6 0 0 1 6 6v82.5a6 6 0 0 1-6 6h-213.88a6 6 0 0 1-6-6z" stroke="#00c2a8" stroke-width="2" fill="#fff"/><use xlink:href="#D" transform="matrix(1,0,0,1,4085.0223936287402,1621.4887745122378) translate(0 17.4375)"/><use xlink:href="#E" transform="matrix(1,0,0,1,4085.0223936287402,1621.4887745122378) translate(65.1884765625 17.4375)"/><use xlink:href="#F" transform="matrix(1,0,0,1,4085.0223936287402,1621.4887745122378) translate(0 39.216796875)"/><path d="M2852.77 1719h299v131h-299z" fill="#9391ff"/><path d="M3151.77 1718h2911.5v132h-2911.5z" fill="#fff" fill-opacity="0"/><path d="M2851.77 1718h300v131h-300zM6063.28 1717v132M6063.28 1849h-2911.5M3151.77 1848v-130M3151.77 1718h2911.5" stroke="#a9afb8" stroke-width="2" fill="#fff" fill-opacity="0"/><use xlink:href="#G" transform="matrix(1,0,0,1,2871.77408926512,1774.386821387238) translate(63.91111111111111 13.2)"/><path d="M4229.08 1741a6 6 0 0 1 6-6h1484.7a6 6 0 0 1 6 6v61a6 6 0 0 1-6 6h-1484.7a6 6 0 0 1-6-6z" stroke="#9391ff" stroke-width="2" fill="#9391ff"/><path d="M4235.08 1741a6 6 0 0 1 6-6h1478.7a6 6 0 0 1 6 6v61a6 6 0 0 1-6 6h-1478.7a6 6 0 0 1-6-6z" stroke="#9391ff" stroke-width="2" fill="#fff"/><use xlink:href="#H" transform="matrix(1,0,0,1,4252.075887868776,1749.9868213872378) translate(0 17.4375)"/><use xlink:href="#I" transform="matrix(1,0,0,1,4252.075887868776,1749.9868213872378) translate(118.986328125 17.4375)"/><use xlink:href="#J" transform="matrix(1,0,0,1,4252.075887868776,1749.9868213872378) translate(145.564453125 17.4375)"/><path d="M2852.77 1851h299v464.98h-299z" fill="#6db1ff"/><path d="M3151.77 1850h2911.5v465.98h-2911.5z" fill="#fff" fill-opacity="0"/><path d="M2851.77 1850h300v464.98h-300zM6063.28 1849v465.98M6063.28 2314.98h-2911.5M3151.77 2313.98v-464M3151.77 1850h2911.5" stroke="#a9afb8" stroke-width="2" fill="#fff" fill-opacity="0"/><use xlink:href="#K" transform="matrix(1,0,0,1,2871.77408926512,2073.382915137238) translate(105.3111111111111 13.2)"/><path d="M4730.24 1873a6 6 0 0 1 6-6h148.28a6 6 0 0 1 6 6v82.48a6 6 0 0 1-6 6h-148.28a6 6 0 0 1-6-6z" stroke="#6db1ff" stroke-width="2" fill="#6db1ff"/><path d="M4736.24 1873a6 6 0 0 1 6-6h142.28a6 6 0 0 1 6 6v82.48a6 6 0 0 1-6 6h-142.28a6 6 0 0 1-6-6z" stroke="#6db1ff" stroke-width="2" fill="#fff"/><use xlink:href="#L" transform="matrix(1,0,0,1,4753.236370588881,1881.9868213872378) translate(0 17.4375)"/><use xlink:href="#E" transform="matrix(1,0,0,1,4753.236370588881,1881.9868213872378) translate(61.9541015625 17.4375)"/><use xlink:href="#M" transform="matrix(1,0,0,1,4753.236370588881,1881.9868213872378) translate(0 39.216796875)"/><path d="M4897.3 1985.48a6 6 0 0 1 6-6h148.27a6 6 0 0 1 6 6v82.5a6 6 0 0 1-6 6H4903.3a6 6 0 0 1-6-6z" stroke="#6db1ff" stroke-width="2" fill="#6db1ff"/><path d="M4903.3 1985.48a6 6 0 0 1 6-6h142.27a6 6 0 0 1 6 6v82.5a6 6 0 0 1-6 6H4909.3a6 6 0 0 1-6-6z" stroke="#6db1ff" stroke-width="2" fill="#fff"/><use xlink:href="#N" transform="matrix(1,0,0,1,4920.2898648289165,1994.4848682622378) translate(0 17.4375)"/><use xlink:href="#I" transform="matrix(1,0,0,1,4920.2898648289165,1994.4848682622378) translate(0 39.216796875)"/><use xlink:href="#O" transform="matrix(1,0,0,1,4920.2898648289165,1994.4848682622378) translate(26.578125 39.216796875)"/><path d="M5398.45 2097.98a6 6 0 0 1 6-6h148.28a6 6 0 0 1 6 6v82.5a6 6 0 0 1-6 6h-148.28a6 6 0 0 1-6-6z" stroke="#6db1ff" stroke-width="2" fill="#6db1ff"/><path d="M5404.45 2097.98a6 6 0 0 1 6-6h142.28a6 6 0 0 1 6 6v82.5a6 6 0 0 1-6 6h-142.28a6 6 0 0 1-6-6z" stroke="#6db1ff" stroke-width="2" fill="#fff"/><use xlink:href="#P" transform="matrix(1,0,0,1,5421.450347549022,2106.982915137238) translate(0 17.4375)"/><use xlink:href="#E" transform="matrix(1,0,0,1,5421.450347549022,2106.982915137238) translate(52.453125 17.4375)"/><use xlink:href="#O" transform="matrix(1,0,0,1,5421.450347549022,2106.982915137238) translate(0 39.216796875)"/><path d="M5565.5 2210.48a6 6 0 0 1 6-6h172.15a6 6 0 0 1 6 6v82.5a6 6 0 0 1-6 6H5571.5a6 6 0 0 1-6-6z" stroke="#6db1ff" stroke-width="2" fill="#6db1ff"/><path d="M5571.5 2210.48a6 6 0 0 1 6-6h166.15a6 6 0 0 1 6 6v82.5a6 6 0 0 1-6 6H5577.5a6 6 0 0 1-6-6z" stroke="#6db1ff" stroke-width="2" fill="#fff"/><use xlink:href="#Q" transform="matrix(1,0,0,1,5588.503841789057,2219.480962012238) translate(0 17.4375)"/><use xlink:href="#E" transform="matrix(1,0,0,1,5588.503841789057,2219.480962012238) translate(74.935546875 17.4375)"/><use xlink:href="#O" transform="matrix(1,0,0,1,5588.503841789057,2219.480962012238) translate(0 39.216796875)"/><path d="M3152.77 947h738.8v55h-738.8zM3151.77 1002h739.8v1313.98h-739.8z" fill="#fff"/><path d="M3891.58 1001v-54" stroke="#fff" stroke-opacity="0" stroke-width="2" fill="#fff" fill-opacity="0"/><path d="M3151.77 1002v-54M3150.77 947h740.8" stroke="#a9afb8" stroke-width="2" fill="#fff" fill-opacity="0"/><path d="M3891.58 1001v1313.98" stroke="#fff" stroke-opacity="0" stroke-width="2" fill="#fff" fill-opacity="0"/><path d="M3891.58 2314.98h-739.8M3151.77 2313.98v-1312M3151.77 1002h739.8" stroke="#a9afb8" stroke-width="2" fill="#fff" fill-opacity="0"/><use xlink:href="#d" transform="matrix(1,0,0,1,3171.77408926512,963.1946338872378) translate(319.125 14.6)"/><path d="M3892.58 947h714.95v55h-714.95z" fill="#f2f3f5"/><path d="M3891.58 1002h715.95v1313.98h-715.95z" fill="#fff"/><path d="M4607.53 1001v-54" stroke="#fff" stroke-opacity="0" stroke-width="2" fill="#fff" fill-opacity="0"/><path d="M3891.58 1002v-54" stroke="#f2f3f5" stroke-width="2" fill="#fff" fill-opacity="0"/><path d="M3890.58 947h716.95" stroke="#a9afb8" stroke-width="2" fill="#fff" fill-opacity="0"/><path d="M4607.53 1001v1313.98" stroke="#fff" stroke-opacity="0" stroke-width="2" fill="#fff" fill-opacity="0"/><path d="M4607.53 2314.98h-715.95" stroke="#a9afb8" stroke-width="2" fill="#fff" fill-opacity="0"/><path d="M3891.58 2313.98v-1312" stroke="#f2f3f5" stroke-width="2" fill="#fff" fill-opacity="0"/><path d="M3891.58 1002h715.95" stroke="#a9afb8" stroke-width="2" fill="#fff" fill-opacity="0"/><use xlink:href="#e" transform="matrix(1,0,0,1,3911.582420899562,963.1946338872378) translate(291.575 14.6)"/><path d="M4608.53 947h738.8v55h-738.8zM4607.53 1002h739.8v1313.98h-739.8z" fill="#fff"/><path d="M5347.33 1001v-54" stroke="#fff" stroke-opacity="0" stroke-width="2" fill="#fff" fill-opacity="0"/><path d="M4607.53 1002v-54" stroke="#f2f3f5" stroke-width="2" fill="#fff" fill-opacity="0"/><path d="M4606.53 947h740.8" stroke="#a9afb8" stroke-width="2" fill="#fff" fill-opacity="0"/><path d="M5347.33 1001v1313.98" stroke="#fff" stroke-opacity="0" stroke-width="2" fill="#fff" fill-opacity="0"/><path d="M5347.33 2314.98h-739.8" stroke="#a9afb8" stroke-width="2" fill="#fff" fill-opacity="0"/><path d="M4607.53 2313.98v-1312" stroke="#f2f3f5" stroke-width="2" fill="#fff" fill-opacity="0"/><path d="M4607.53 1002h739.8" stroke="#a9afb8" stroke-width="2" fill="#fff" fill-opacity="0"/><use xlink:href="#f" transform="matrix(1,0,0,1,4627.52596764257,963.1946338872378) translate(315.575 14.6)"/><path d="M5348.33 947h714.95v55h-714.95z" fill="#f2f3f5"/><path d="M5347.33 1002h715.95v1313.98h-715.95z" fill="#fff"/><path d="M6063.28 1001v-54" stroke="#a9afb8" stroke-width="2" fill="#fff" fill-opacity="0"/><path d="M5347.33 1002v-54" stroke="#f2f3f5" stroke-width="2" fill="#fff" fill-opacity="0"/><path d="M5346.33 947h716.95M6063.28 1001v1313.98M6063.28 2314.98h-715.95" stroke="#a9afb8" stroke-width="2" fill="#fff" fill-opacity="0"/><path d="M5347.33 2313.98v-1312" stroke="#f2f3f5" stroke-width="2" fill="#fff" fill-opacity="0"/><path d="M5347.33 1002h715.95" stroke="#a9afb8" stroke-width="2" fill="#fff" fill-opacity="0"/><use xlink:href="#g" transform="matrix(1,0,0,1,5367.334299277012,963.1946338872378) translate(294.075 14.6)"/><path d="M3151.77 1002h2911.5v52h-2911.5z" stroke="#a9afb8" stroke-width="2" fill="#f2f3f5"/><path d="M5905.9 1028a16 16 0 0 1 16-16h68a16 16 0 0 1 16 16 16 16 0 0 1-16 16h-68a16 16 0 0 1-16-16zM5955.9 1044l10 10-10 10-10-10z" fill="#fe7070"/><path d="M5955.9 1061v6m0 4v6m0 4.02v6m0 4v6m0 4v6.02m0 4v6m0 4v6m0 4.02v6m0 4v6m0 4v6.02m0 4v6m0 4v6m0 4v6.02m0 4v6m0 4v6m0 4.02v6m0 4v6m0 4v6.02m0 4v6m0 4v6m0 4.02v6m0 4v6m0 4v6.02m0 4v6m0 4v6m0 4v6.02m0 4v6m0 4v6.02m0 4v6m0 4v6m0 4v6.02m0 4v6m0 4v6.02m0 4v6m0 4v6m0 4v6.02m0 4v6m0 4v6m0 4.02v6m0 4v6m0 4v6.02m0 4v6m0 4v6m0 4.02v6m0 4v6m0 4v6.02m0 4v6m0 4v6m0 4.02v6m0 4v6m0 4v6m0 4.02v6m0 4v6m0 4v6.02m0 4v6m0 4v6m0 4.02v6m0 4v6m0 4v6.02m0 4v6m0 4v6m0 4.02v6m0 4v6m0 4v6.02m0 4v6m0 4v6m0 4.02v6m0 4v6m0 4v6.02m0 4v6m0 4v6m0 4.02v6m0 4v6m0 4v6.02m0 4v6m0 4v6m0 4v6.02m0 4v6m0 4v6m0 4.02v6m0 4v6m0 4v6.02m0 4v6m0 4v6m0 4.02v6m0 4v6m0 4v6.02m0 4v6m0 4v6m0 4v6.02m0 4v6m0 4v6.02m0 4v6m0 4v6m0 4v6.02m0 4v6m0 4v6.02m0 4v6m0 4v6m0 4v6.02m0 4v6m0 4v6m0 4.02v6m0 4v6m0 4v6.02m0 4v6m0 4v6m0 4.02v6m0 4v6m0 4v6.02m0 4v6m0 4v6m0 4v6.02m0 4v6m0 4v6m0 4.02v6m0 4v6m0 4v6.02m0 4v6m0 4v6m0 4.02v6m0 4v6m0 4v6.02m0 4v6m0 4v6m0 4.02v3-3m0-4v-6m0-4v-6.02m0-4v-6m0-4v-6m0-4.02v-6m0-4v-6m0-4v-6.02m0-4v-6m0-4v-6m0-4.02v-6m0-4v-6m0-4v-6.02m0-4v-6m0-4v-6m0-4.02v-6m0-4v-6m0-4v-6.02m0-4v-6m0-4v-6m0-4.02v-6m0-4v-6m0-4v-6.02m0-4v-6m0-4v-6m0-4v-6.02m0-4v-6m0-4v-6m0-4.02v-6m0-4v-6m0-4v-6.02m0-4v-6m0-4v-6m0-4.02v-6m0-4v-6m0-4v-6.02m0-4v-6m0-4v-6m0-4.02v-6m0-4v-6m0-4v-6.02m0-4v-6m0-4v-6m0-4.02v-6m0-4v-6m0-4v-6.02m0-4v-6m0-4v-6m0-4v-6.02m0-4v-6m0-4v-6m0-4.02v-6m0-4v-6m0-4v-6.02m0-4v-6m0-4v-6m0-4.02v-6m0-4v-6m0-4v-6.02m0-4v-6m0-4v-6m0-4v-6.02m0-4v-6m0-4v-6.02m0-4v-6m0-4v-6m0-4v-6.02m0-4v-6m0-4v-6.02m0-4v-6m0-4v-6m0-4v-6.02m0-4v-6m0-4v-6m0-4.02v-6m0-4v-6m0-4v-6.02m0-4v-6m0-4v-6m0-4.02v-6m0-4v-6m0-4v-6.02m0-4v-6m0-4v-6m0-4v-6.02m0-4v-6m0-4v-6m0-4.02v-6m0-4v-6m0-4v-6.02m0-4v-6m0-4v-6m0-4.02v-6m0-4v-6m0-4v-6.02m0-4v-6m0-4v-6m0-4.02v-6m0-4v-6m0-4v-6.02m0-4v-6m0-4v-6m0-4.02v-6m0-4v-6m0-4v-6.02m0-4v-6m0-4v-6m0-4.02v-6m0-4v-6m0-4v-6.02m0-4v-6m0-4v-6m0-4v-6.02m0-4v-6m0-4v-6m0-4.02v-6m0-4v-6m0-4v-6.02m0-4v-6m0-4v-6m0-4.02v-6m0-4v-6m0-4V1091m0-4v-6m0-4v-6m0-4V1061m0-4v-3 3" stroke="#fe7070" stroke-width="2" fill="none"/><use xlink:href="#h" transform="matrix(1,0,0,1,5925.886314008569,1017.8672608403627) translate(0.14100585937499233 16.589501953125)"/><use xlink:href="#i" transform="matrix(1,0,0,1,5925.886314008569,1017.8672608403627) translate(49.682578125000006 16.589501953125)"/><path d="M5667.06 1028a16 16 0 0 1 16-16h68.36a16 16 0 0 1 16 16 16 16 0 0 1-16 16h-68.36a16 16 0 0 1-16-16zM5717.24 1044l10 10-10 10-10-10z" fill="#fe7070"/><path d="M5717.24 1061v6m0 4v6m0 4.02v6m0 4v6m0 4v6.02m0 4v6m0 4v6m0 4.02v6m0 4v6m0 4v6.02m0 4v6m0 4v6m0 4v6.02m0 4v6m0 4v6m0 4.02v6m0 4v6m0 4v6.02m0 4v6m0 4v6m0 4.02v6m0 4v6m0 4v6.02m0 4v6m0 4v6m0 4v6.02m0 4v6m0 4v6.02m0 4v6m0 4v6m0 4v6.02m0 4v6m0 4v6.02m0 4v6m0 4v6m0 4v6.02m0 4v6m0 4v6m0 4.02v6m0 4v6m0 4v6.02m0 4v6m0 4v6m0 4.02v6m0 4v6m0 4v6.02m0 4v6m0 4v6m0 4.02v6m0 4v6m0 4v6m0 4.02v6m0 4v6m0 4v6.02m0 4v6m0 4v6m0 4.02v6m0 4v6m0 4v6.02m0 4v6m0 4v6m0 4.02v6m0 4v6m0 4v6.02m0 4v6m0 4v6m0 4.02v6m0 4v6m0 4v6.02m0 4v6m0 4v6m0 4.02v6m0 4v6m0 4v6.02m0 4v6m0 4v6m0 4v6.02m0 4v6m0 4v6m0 4.02v6m0 4v6m0 4v6.02m0 4v6m0 4v6m0 4.02v6m0 4v6m0 4v6.02m0 4v6m0 4v6m0 4v6.02m0 4v6m0 4v6.02m0 4v6m0 4v6m0 4v6.02m0 4v6m0 4v6.02m0 4v6m0 4v6m0 4v6.02m0 4v6m0 4v6m0 4.02v6m0 4v6m0 4v6.02m0 4v6m0 4v6m0 4.02v6m0 4v6m0 4v6.02m0 4v6m0 4v6m0 4v6.02m0 4v6m0 4v6m0 4.02v6m0 4v6m0 4v6.02m0 4v6m0 4v6m0 4.02v6m0 4v6m0 4v6.02m0 4v6m0 4v6m0 4.02v3-3m0-4v-6m0-4v-6.02m0-4v-6m0-4v-6m0-4.02v-6m0-4v-6m0-4v-6.02m0-4v-6m0-4v-6m0-4.02v-6m0-4v-6m0-4v-6.02m0-4v-6m0-4v-6m0-4.02v-6m0-4v-6m0-4v-6.02m0-4v-6m0-4v-6m0-4.02v-6m0-4v-6m0-4v-6.02m0-4v-6m0-4v-6m0-4v-6.02m0-4v-6m0-4v-6m0-4.02v-6m0-4v-6m0-4v-6.02m0-4v-6m0-4v-6m0-4.02v-6m0-4v-6m0-4v-6.02m0-4v-6m0-4v-6m0-4.02v-6m0-4v-6m0-4v-6.02m0-4v-6m0-4v-6m0-4.02v-6m0-4v-6m0-4v-6.02m0-4v-6m0-4v-6m0-4v-6.02m0-4v-6m0-4v-6m0-4.02v-6m0-4v-6m0-4v-6.02m0-4v-6m0-4v-6m0-4.02v-6m0-4v-6m0-4v-6.02m0-4v-6m0-4v-6m0-4v-6.02m0-4v-6m0-4v-6.02m0-4v-6m0-4v-6m0-4v-6.02m0-4v-6m0-4v-6.02m0-4v-6m0-4v-6m0-4v-6.02m0-4v-6m0-4v-6m0-4.02v-6m0-4v-6m0-4v-6.02m0-4v-6m0-4v-6m0-4.02v-6m0-4v-6m0-4v-6.02m0-4v-6m0-4v-6m0-4v-6.02m0-4v-6m0-4v-6m0-4.02v-6m0-4v-6m0-4v-6.02m0-4v-6m0-4v-6m0-4.02v-6m0-4v-6m0-4v-6.02m0-4v-6m0-4v-6m0-4.02v-6m0-4v-6m0-4v-6.02m0-4v-6m0-4v-6m0-4.02v-6m0-4v-6m0-4v-6.02m0-4v-6m0-4v-6m0-4.02v-6m0-4v-6m0-4v-6.02m0-4v-6m0-4v-6m0-4v-6.02m0-4v-6m0-4v-6m0-4.02v-6m0-4v-6m0-4v-6.02m0-4v-6m0-4v-6m0-4.02v-6m0-4v-6m0-4V1091m0-4v-6m0-4v-6m0-4V1061m0-4v-3 3" stroke="#fe7070" stroke-width="2" fill="none"/><use xlink:href="#h" transform="matrix(1,0,0,1,5687.055691656733,1017.8672608403627) translate(0.32222656249999204 16.589501953125)"/><use xlink:href="#j" transform="matrix(1,0,0,1,5687.055691656733,1017.8672608403627) translate(49.863798828125006 16.589501953125)"/><path d="M4999.02 1028a16 16 0 0 1 16-16h68a16 16 0 0 1 16 16 16 16 0 0 1-16 16h-68a16 16 0 0 1-16-16zM5049.02 1044l10 10-10 10-10-10z" fill="#fe7070"/><path d="M5049.02 1061v6m0 4v6m0 4.02v6m0 4v6m0 4v6.02m0 4v6m0 4v6m0 4.02v6m0 4v6m0 4v6.02m0 4v6m0 4v6m0 4v6.02m0 4v6m0 4v6m0 4.02v6m0 4v6m0 4v6.02m0 4v6m0 4v6m0 4.02v6m0 4v6m0 4v6.02m0 4v6m0 4v6m0 4v6.02m0 4v6m0 4v6.02m0 4v6m0 4v6m0 4v6.02m0 4v6m0 4v6.02m0 4v6m0 4v6m0 4v6.02m0 4v6m0 4v6m0 4.02v6m0 4v6m0 4v6.02m0 4v6m0 4v6m0 4.02v6m0 4v6m0 4v6.02m0 4v6m0 4v6m0 4.02v6m0 4v6m0 4v6m0 4.02v6m0 4v6m0 4v6.02m0 4v6m0 4v6m0 4.02v6m0 4v6m0 4v6.02m0 4v6m0 4v6m0 4.02v6m0 4v6m0 4v6.02m0 4v6m0 4v6m0 4.02v6m0 4v6m0 4v6.02m0 4v6m0 4v6m0 4.02v6m0 4v6m0 4v6.02m0 4v6m0 4v6m0 4v6.02m0 4v6m0 4v6m0 4.02v6m0 4v6m0 4v6.02m0 4v6m0 4v6m0 4.02v6m0 4v6m0 4v6.02m0 4v6m0 4v6m0 4v6.02m0 4v6m0 4v6.02m0 4v6m0 4v6m0 4v6.02m0 4v6m0 4v6.02m0 4v6m0 4v6m0 4v6.02m0 4v6m0 4v6m0 4.02v6m0 4v6m0 4v6.02m0 4v6m0 4v6m0 4.02v6m0 4v6m0 4v6.02m0 4v6m0 4v6m0 4v6.02m0 4v6m0 4v6m0 4.02v6m0 4v6m0 4v6.02m0 4v6m0 4v6m0 4.02v6m0 4v6m0 4v6.02m0 4v6m0 4v6m0 4.02v3-3m0-4v-6m0-4v-6.02m0-4v-6m0-4v-6m0-4.02v-6m0-4v-6m0-4v-6.02m0-4v-6m0-4v-6m0-4.02v-6m0-4v-6m0-4v-6.02m0-4v-6m0-4v-6m0-4.02v-6m0-4v-6m0-4v-6.02m0-4v-6m0-4v-6m0-4.02v-6m0-4v-6m0-4v-6.02m0-4v-6m0-4v-6m0-4v-6.02m0-4v-6m0-4v-6m0-4.02v-6m0-4v-6m0-4v-6.02m0-4v-6m0-4v-6m0-4.02v-6m0-4v-6m0-4v-6.02m0-4v-6m0-4v-6m0-4.02v-6m0-4v-6m0-4v-6.02m0-4v-6m0-4v-6m0-4.02v-6m0-4v-6m0-4v-6.02m0-4v-6m0-4v-6m0-4v-6.02m0-4v-6m0-4v-6m0-4.02v-6m0-4v-6m0-4v-6.02m0-4v-6m0-4v-6m0-4.02v-6m0-4v-6m0-4v-6.02m0-4v-6m0-4v-6m0-4v-6.02m0-4v-6m0-4v-6.02m0-4v-6m0-4v-6m0-4v-6.02m0-4v-6m0-4v-6.02m0-4v-6m0-4v-6m0-4v-6.02m0-4v-6m0-4v-6m0-4.02v-6m0-4v-6m0-4v-6.02m0-4v-6m0-4v-6m0-4.02v-6m0-4v-6m0-4v-6.02m0-4v-6m0-4v-6m0-4v-6.02m0-4v-6m0-4v-6m0-4.02v-6m0-4v-6m0-4v-6.02m0-4v-6m0-4v-6m0-4.02v-6m0-4v-6m0-4v-6.02m0-4v-6m0-4v-6m0-4.02v-6m0-4v-6m0-4v-6.02m0-4v-6m0-4v-6m0-4.02v-6m0-4v-6m0-4v-6.02m0-4v-6m0-4v-6m0-4.02v-6m0-4v-6m0-4v-6.02m0-4v-6m0-4v-6m0-4v-6.02m0-4v-6m0-4v-6m0-4.02v-6m0-4v-6m0-4v-6.02m0-4v-6m0-4v-6m0-4.02v-6m0-4v-6m0-4V1091m0-4v-6m0-4v-6m0-4V1061m0-4v-3 3" stroke="#fe7070" stroke-width="2" fill="none"/><use xlink:href="#h" transform="matrix(1,0,0,1,5019.024488134091,1017.8672608403627) translate(0.059267578124991616 16.589501953125)"/><use xlink:href="#k" transform="matrix(1,0,0,1,5019.024488134091,1017.8672608403627) translate(49.60083984375001 16.589501953125)"/><path d="M4330.8 1028a16 16 0 0 1 16-16h68a16 16 0 0 1 16 16 16 16 0 0 1-16 16h-68a16 16 0 0 1-16-16zM4380.8 1044l10 10-10 10-10-10z" fill="#fe7070"/><path d="M4380.8 1061v6m0 4v6m0 4.02v6m0 4v6m0 4v6.02m0 4v6m0 4v6m0 4.02v6m0 4v6m0 4v6.02m0 4v6m0 4v6m0 4v6.02m0 4v6m0 4v6m0 4.02v6m0 4v6m0 4v6.02m0 4v6m0 4v6m0 4.02v6m0 4v6m0 4v6.02m0 4v6m0 4v6m0 4v6.02m0 4v6m0 4v6.02m0 4v6m0 4v6m0 4v6.02m0 4v6m0 4v6.02m0 4v6m0 4v6m0 4v6.02m0 4v6m0 4v6m0 4.02v6m0 4v6m0 4v6.02m0 4v6m0 4v6m0 4.02v6m0 4v6m0 4v6.02m0 4v6m0 4v6m0 4.02v6m0 4v6m0 4v6m0 4.02v6m0 4v6m0 4v6.02m0 4v6m0 4v6m0 4.02v6m0 4v6m0 4v6.02m0 4v6m0 4v6m0 4.02v6m0 4v6m0 4v6.02m0 4v6m0 4v6m0 4.02v6m0 4v6m0 4v6.02m0 4v6m0 4v6m0 4.02v6m0 4v6m0 4v6.02m0 4v6m0 4v6m0 4v6.02m0 4v6m0 4v6m0 4.02v6m0 4v6m0 4v6.02m0 4v6m0 4v6m0 4.02v6m0 4v6m0 4v6.02m0 4v6m0 4v6m0 4v6.02m0 4v6m0 4v6.02m0 4v6m0 4v6m0 4v6.02m0 4v6m0 4v6.02m0 4v6m0 4v6m0 4v6.02m0 4v6m0 4v6m0 4.02v6m0 4v6m0 4v6.02m0 4v6m0 4v6m0 4.02v6m0 4v6m0 4v6.02m0 4v6m0 4v6m0 4v6.02m0 4v6m0 4v6m0 4.02v6m0 4v6m0 4v6.02m0 4v6m0 4v6m0 4.02v6m0 4v6m0 4v6.02m0 4v6m0 4v6m0 4.02v3-3m0-4v-6m0-4v-6.02m0-4v-6m0-4v-6m0-4.02v-6m0-4v-6m0-4v-6.02m0-4v-6m0-4v-6m0-4.02v-6m0-4v-6m0-4v-6.02m0-4v-6m0-4v-6m0-4.02v-6m0-4v-6m0-4v-6.02m0-4v-6m0-4v-6m0-4.02v-6m0-4v-6m0-4v-6.02m0-4v-6m0-4v-6m0-4v-6.02m0-4v-6m0-4v-6m0-4.02v-6m0-4v-6m0-4v-6.02m0-4v-6m0-4v-6m0-4.02v-6m0-4v-6m0-4v-6.02m0-4v-6m0-4v-6m0-4.02v-6m0-4v-6m0-4v-6.02m0-4v-6m0-4v-6m0-4.02v-6m0-4v-6m0-4v-6.02m0-4v-6m0-4v-6m0-4v-6.02m0-4v-6m0-4v-6m0-4.02v-6m0-4v-6m0-4v-6.02m0-4v-6m0-4v-6m0-4.02v-6m0-4v-6m0-4v-6.02m0-4v-6m0-4v-6m0-4v-6.02m0-4v-6m0-4v-6.02m0-4v-6m0-4v-6m0-4v-6.02m0-4v-6m0-4v-6.02m0-4v-6m0-4v-6m0-4v-6.02m0-4v-6m0-4v-6m0-4.02v-6m0-4v-6m0-4v-6.02m0-4v-6m0-4v-6m0-4.02v-6m0-4v-6m0-4v-6.02m0-4v-6m0-4v-6m0-4v-6.02m0-4v-6m0-4v-6m0-4.02v-6m0-4v-6m0-4v-6.02m0-4v-6m0-4v-6m0-4.02v-6m0-4v-6m0-4v-6.02m0-4v-6m0-4v-6m0-4.02v-6m0-4v-6m0-4v-6.02m0-4v-6m0-4v-6m0-4.02v-6m0-4v-6m0-4v-6.02m0-4v-6m0-4v-6m0-4.02v-6m0-4v-6m0-4v-6.02m0-4v-6m0-4v-6m0-4v-6.02m0-4v-6m0-4v-6m0-4.02v-6m0-4v-6m0-4v-6.02m0-4v-6m0-4v-6m0-4.02v-6m0-4v-6m0-4V1091m0-4v-6m0-4v-6m0-4V1061m0-4v-3 3" stroke="#fe7070" stroke-width="2" fill="none"/><use xlink:href="#h" transform="matrix(1,0,0,1,4350.8105111739505,1017.8672608403627) translate(0.12465820312499432 16.589501953125)"/><use xlink:href="#l" transform="matrix(1,0,0,1,4350.8105111739505,1017.8672608403627) translate(49.66623046875001 16.589501953125)"/><path d="M3829.65 1028a16 16 0 0 1 16-16h68a16 16 0 0 1 16 16 16 16 0 0 1-16 16h-68a16 16 0 0 1-16-16zM3879.65 1044l10 10-10 10-10-10z" fill="#00c2a8"/><path d="M3879.65 1061v6m0 4v6m0 4.02v6m0 4v6m0 4v6.02m0 4v6m0 4v6m0 4.02v6m0 4v6m0 4v6.02m0 4v6m0 4v6m0 4v6.02m0 4v6m0 4v6m0 4.02v6m0 4v6m0 4v6.02m0 4v6m0 4v6m0 4.02v6m0 4v6m0 4v6.02m0 4v6m0 4v6m0 4v6.02m0 4v6m0 4v6.02m0 4v6m0 4v6m0 4v6.02m0 4v6m0 4v6.02m0 4v6m0 4v6m0 4v6.02m0 4v6m0 4v6m0 4.02v6m0 4v6m0 4v6.02m0 4v6m0 4v6m0 4.02v6m0 4v6m0 4v6.02m0 4v6m0 4v6m0 4.02v6m0 4v6m0 4v6m0 4.02v6m0 4v6m0 4v6.02m0 4v6m0 4v6m0 4.02v6m0 4v6m0 4v6.02m0 4v6m0 4v6m0 4.02v6m0 4v6m0 4v6.02m0 4v6m0 4v6m0 4.02v6m0 4v6m0 4v6.02m0 4v6m0 4v6m0 4.02v6m0 4v6m0 4v6.02m0 4v6m0 4v6m0 4v6.02m0 4v6m0 4v6m0 4.02v6m0 4v6m0 4v6.02m0 4v6m0 4v6m0 4.02v6m0 4v6m0 4v6.02m0 4v6m0 4v6m0 4v6.02m0 4v6m0 4v6.02m0 4v6m0 4v6m0 4v6.02m0 4v6m0 4v6.02m0 4v6m0 4v6m0 4v6.02m0 4v6m0 4v6m0 4.02v6m0 4v6m0 4v6.02m0 4v6m0 4v6m0 4.02v6m0 4v6m0 4v6.02m0 4v6m0 4v6m0 4v6.02m0 4v6m0 4v6m0 4.02v6m0 4v6m0 4v6.02m0 4v6m0 4v6m0 4.02v6m0 4v6m0 4v6.02m0 4v6m0 4v6m0 4.02v3-3m0-4v-6m0-4v-6.02m0-4v-6m0-4v-6m0-4.02v-6m0-4v-6m0-4v-6.02m0-4v-6m0-4v-6m0-4.02v-6m0-4v-6m0-4v-6.02m0-4v-6m0-4v-6m0-4.02v-6m0-4v-6m0-4v-6.02m0-4v-6m0-4v-6m0-4.02v-6m0-4v-6m0-4v-6.02m0-4v-6m0-4v-6m0-4v-6.02m0-4v-6m0-4v-6m0-4.02v-6m0-4v-6m0-4v-6.02m0-4v-6m0-4v-6m0-4.02v-6m0-4v-6m0-4v-6.02m0-4v-6m0-4v-6m0-4.02v-6m0-4v-6m0-4v-6.02m0-4v-6m0-4v-6m0-4.02v-6m0-4v-6m0-4v-6.02m0-4v-6m0-4v-6m0-4v-6.02m0-4v-6m0-4v-6m0-4.02v-6m0-4v-6m0-4v-6.02m0-4v-6m0-4v-6m0-4.02v-6m0-4v-6m0-4v-6.02m0-4v-6m0-4v-6m0-4v-6.02m0-4v-6m0-4v-6.02m0-4v-6m0-4v-6m0-4v-6.02m0-4v-6m0-4v-6.02m0-4v-6m0-4v-6m0-4v-6.02m0-4v-6m0-4v-6m0-4.02v-6m0-4v-6m0-4v-6.02m0-4v-6m0-4v-6m0-4.02v-6m0-4v-6m0-4v-6.02m0-4v-6m0-4v-6m0-4v-6.02m0-4v-6m0-4v-6m0-4.02v-6m0-4v-6m0-4v-6.02m0-4v-6m0-4v-6m0-4.02v-6m0-4v-6m0-4v-6.02m0-4v-6m0-4v-6m0-4.02v-6m0-4v-6m0-4v-6.02m0-4v-6m0-4v-6m0-4.02v-6m0-4v-6m0-4v-6.02m0-4v-6m0-4v-6m0-4.02v-6m0-4v-6m0-4v-6.02m0-4v-6m0-4v-6m0-4v-6.02m0-4v-6m0-4v-6m0-4.02v-6m0-4v-6m0-4v-6.02m0-4v-6m0-4v-6m0-4.02v-6m0-4v-6m0-4V1091m0-4v-6m0-4v-6m0-4V1061m0-4v-3 3" stroke="#00c2a8" stroke-width="2" fill="none"/><path d="M3829.65 1028a16 16 0 0 1 16-16h68a16 16 0 0 1 16 16 16 16 0 0 1-16 16h-68a16 16 0 0 1-16-16zM3879.65 1044l10 10-10 10-10-10z" fill="#fe7070"/><path d="M3879.65 1061v6m0 4v6m0 4.02v6m0 4v6m0 4v6.02m0 4v6m0 4v6m0 4.02v6m0 4v6m0 4v6.02m0 4v6m0 4v6m0 4v6.02m0 4v6m0 4v6m0 4.02v6m0 4v6m0 4v6.02m0 4v6m0 4v6m0 4.02v6m0 4v6m0 4v6.02m0 4v6m0 4v6m0 4v6.02m0 4v6m0 4v6.02m0 4v6m0 4v6m0 4v6.02m0 4v6m0 4v6.02m0 4v6m0 4v6m0 4v6.02m0 4v6m0 4v6m0 4.02v6m0 4v6m0 4v6.02m0 4v6m0 4v6m0 4.02v6m0 4v6m0 4v6.02m0 4v6m0 4v6m0 4.02v6m0 4v6m0 4v6m0 4.02v6m0 4v6m0 4v6.02m0 4v6m0 4v6m0 4.02v6m0 4v6m0 4v6.02m0 4v6m0 4v6m0 4.02v6m0 4v6m0 4v6.02m0 4v6m0 4v6m0 4.02v6m0 4v6m0 4v6.02m0 4v6m0 4v6m0 4.02v6m0 4v6m0 4v6.02m0 4v6m0 4v6m0 4v6.02m0 4v6m0 4v6m0 4.02v6m0 4v6m0 4v6.02m0 4v6m0 4v6m0 4.02v6m0 4v6m0 4v6.02m0 4v6m0 4v6m0 4v6.02m0 4v6m0 4v6.02m0 4v6m0 4v6m0 4v6.02m0 4v6m0 4v6.02m0 4v6m0 4v6m0 4v6.02m0 4v6m0 4v6m0 4.02v6m0 4v6m0 4v6.02m0 4v6m0 4v6m0 4.02v6m0 4v6m0 4v6.02m0 4v6m0 4v6m0 4v6.02m0 4v6m0 4v6m0 4.02v6m0 4v6m0 4v6.02m0 4v6m0 4v6m0 4.02v6m0 4v6m0 4v6.02m0 4v6m0 4v6m0 4.02v3-3m0-4v-6m0-4v-6.02m0-4v-6m0-4v-6m0-4.02v-6m0-4v-6m0-4v-6.02m0-4v-6m0-4v-6m0-4.02v-6m0-4v-6m0-4v-6.02m0-4v-6m0-4v-6m0-4.02v-6m0-4v-6m0-4v-6.02m0-4v-6m0-4v-6m0-4.02v-6m0-4v-6m0-4v-6.02m0-4v-6m0-4v-6m0-4v-6.02m0-4v-6m0-4v-6m0-4.02v-6m0-4v-6m0-4v-6.02m0-4v-6m0-4v-6m0-4.02v-6m0-4v-6m0-4v-6.02m0-4v-6m0-4v-6m0-4.02v-6m0-4v-6m0-4v-6.02m0-4v-6m0-4v-6m0-4.02v-6m0-4v-6m0-4v-6.02m0-4v-6m0-4v-6m0-4v-6.02m0-4v-6m0-4v-6m0-4.02v-6m0-4v-6m0-4v-6.02m0-4v-6m0-4v-6m0-4.02v-6m0-4v-6m0-4v-6.02m0-4v-6m0-4v-6m0-4v-6.02m0-4v-6m0-4v-6.02m0-4v-6m0-4v-6m0-4v-6.02m0-4v-6m0-4v-6.02m0-4v-6m0-4v-6m0-4v-6.02m0-4v-6m0-4v-6m0-4.02v-6m0-4v-6m0-4v-6.02m0-4v-6m0-4v-6m0-4.02v-6m0-4v-6m0-4v-6.02m0-4v-6m0-4v-6m0-4v-6.02m0-4v-6m0-4v-6m0-4.02v-6m0-4v-6m0-4v-6.02m0-4v-6m0-4v-6m0-4.02v-6m0-4v-6m0-4v-6.02m0-4v-6m0-4v-6m0-4.02v-6m0-4v-6m0-4v-6.02m0-4v-6m0-4v-6m0-4.02v-6m0-4v-6m0-4v-6.02m0-4v-6m0-4v-6m0-4.02v-6m0-4v-6m0-4v-6.02m0-4v-6m0-4v-6m0-4v-6.02m0-4v-6m0-4v-6m0-4.02v-6m0-4v-6m0-4v-6.02m0-4v-6m0-4v-6m0-4.02v-6m0-4v-6m0-4V1091m0-4v-6m0-4v-6m0-4V1061m0-4v-3 3" stroke="#fe7070" stroke-width="2" fill="none"/><use xlink:href="#h" transform="matrix(1,0,0,1,3849.650028453845,1017.8672608403627) translate(1.8248144531249935 16.589501953125)"/><use xlink:href="#m" transform="matrix(1,0,0,1,3849.650028453845,1017.8672608403627) translate(51.36638671875001 16.589501953125)"/><path d="M2852.77 1055h299v422h-299z" fill="#e08fff"/><path d="M3151.77 1054h2911.5v423h-2911.5z" fill="#fff" fill-opacity="0"/><path d="M2851.77 1054h300v422h-300zM6063.28 1053v423M6063.28 1476h-2911.5M3151.77 1475v-421M3151.77 1054h2911.5" stroke="#a9afb8" stroke-width="2" fill="#fff" fill-opacity="0"/><use xlink:href="#n" transform="matrix(1,0,0,1,2871.77408926512,1255.892680762238) translate(79.86666666666667 13.2)"/><path d="M3489.27 1077a6 6 0 0 1 6-6h172.14a6 6 0 0 1 6 6v82.5a6 6 0 0 1-6 6h-172.13a6 6 0 0 1-6-6z" stroke="#ba23f6" stroke-width="2" fill="#ba23f6"/><path d="M3495.27 1077a6 6 0 0 1 6-6h166.14a6 6 0 0 1 6 6v82.5a6 6 0 0 1-6 6h-166.13a6 6 0 0 1-6-6z" stroke="#ba23f6" stroke-width="2" fill="#fff"/><use xlink:href="#o" transform="matrix(1,0,0,1,3512.267556234334,1085.9946338872378) translate(0 17.4375)"/><use xlink:href="#p" transform="matrix(1,0,0,1,3512.267556234334,1085.9946338872378) translate(85.921875 17.4375)"/><use xlink:href="#q" transform="matrix(1,0,0,1,3512.267556234334,1085.9946338872378) translate(0 39.216796875)"/><path d="M3656.32 1189.5a6 6 0 0 1 6-6h172.15a6 6 0 0 1 6 6v82.5a6 6 0 0 1-6 6h-172.15a6 6 0 0 1-6-6z" stroke="#ba23f6" stroke-width="2" fill="#ba23f6"/><path d="M3662.32 1189.5a6 6 0 0 1 6-6h166.15a6 6 0 0 1 6 6v82.5a6 6 0 0 1-6 6h-166.15a6 6 0 0 1-6-6z" stroke="#ba23f6" stroke-width="2" fill="#fff"/><use xlink:href="#r" transform="matrix(1,0,0,1,3679.321050474369,1198.4926807622378) translate(0 17.4375)"/><use xlink:href="#s" transform="matrix(1,0,0,1,3679.321050474369,1198.4926807622378) translate(0 39.216796875)"/><use xlink:href="#t" transform="matrix(1,0,0,1,3679.321050474369,1198.4926807622378) translate(26.876953125 39.216796875)"/><path d="M5732.56 1189.5a6 6 0 0 1 6-6h219.87a6 6 0 0 1 6 6v61a6 6 0 0 1-6 6h-219.87a6 6 0 0 1-6-6z" stroke="#ba23f6" stroke-width="2" fill="#ba23f6"/><path d="M5738.56 1189.5a6 6 0 0 1 6-6h213.87a6 6 0 0 1 6 6v61a6 6 0 0 1-6 6h-213.87a6 6 0 0 1-6-6z" stroke="#ba23f6" stroke-width="2" fill="#fff"/><use xlink:href="#u" transform="matrix(1,0,0,1,5755.557336029093,1198.4926807622378) translate(0 17.4375)"/><use xlink:href="#v" transform="matrix(1,0,0,1,5755.557336029093,1198.4926807622378) translate(123.5478515625 17.4375)"/><path d="M3727.9 1302a6 6 0 0 1 6-6h315.35a6 6 0 0 1 6 6v61a6 6 0 0 1-6 6H3733.9a6 6 0 0 1-6-6z" stroke="#ba23f6" stroke-width="2" fill="#ba23f6"/><path d="M3733.9 1302a6 6 0 0 1 6-6h309.35a6 6 0 0 1 6 6v61a6 6 0 0 1-6 6H3739.9a6 6 0 0 1-6-6z" stroke="#ba23f6" stroke-width="2" fill="#fff"/><use xlink:href="#w" transform="matrix(1,0,0,1,3750.91540514867,1310.9907276372378) translate(0 17.4375)"/><use xlink:href="#s" transform="matrix(1,0,0,1,3750.91540514867,1310.9907276372378) translate(124.48828125 17.4375)"/><use xlink:href="#x" transform="matrix(1,0,0,1,3750.91540514867,1310.9907276372378) translate(151.365234375 17.4375)"/><path d="M3894.97 1393a6 6 0 0 1 6-6h148.28a6 6 0 0 1 6 6v61a6 6 0 0 1-6 6h-148.28a6 6 0 0 1-6-6z" stroke="#ba23f6" stroke-width="2" fill="#ba23f6"/><path d="M3900.97 1393a6 6 0 0 1 6-6h142.28a6 6 0 0 1 6 6v61a6 6 0 0 1-6 6h-142.28a6 6 0 0 1-6-6z" stroke="#ba23f6" stroke-width="2" fill="#fff"/><use xlink:href="#y" transform="matrix(1,0,0,1,3917.9688993887053,1401.9907276372378) translate(0 17.4375)"/><path d="M2852.77 1478h299v240h-299z" fill="#00c2a8"/><path d="M3151.77 1477h2911.5v241h-2911.5z" fill="#fff" fill-opacity="0"/><path d="M2851.77 1477h300v240h-300zM6063.28 1476v241M6063.28 1717h-2911.5M3151.77 1716v-239M3151.77 1477h2911.5" stroke="#a9afb8" stroke-width="2" fill="#fff" fill-opacity="0"/><g><use xlink:href="#z" transform="matrix(1,0,0,1,2871.77408926512,1587.888774512238) translate(103.4 13.2)"/></g><path d="M3894.97 1500a6 6 0 0 1 6-6h219.87a6 6 0 0 1 6 6v82.5a6 6 0 0 1-6 6h-219.87a6 6 0 0 1-6-6z" stroke="#00c2a8" stroke-width="2" fill="#00c2a8"/><path d="M3900.97 1500a6 6 0 0 1 6-6h213.87a6 6 0 0 1 6 6v82.5a6 6 0 0 1-6 6h-213.87a6 6 0 0 1-6-6z" stroke="#00c2a8" stroke-width="2" fill="#fff"/><g><use xlink:href="#A" transform="matrix(1,0,0,1,3917.9688993887053,1508.9907276372378) translate(0 17.4375)"/><use xlink:href="#B" transform="matrix(1,0,0,1,3917.9688993887053,1508.9907276372378) translate(99.6064453125 17.4375)"/><use xlink:href="#C" transform="matrix(1,0,0,1,3917.9688993887053,1508.9907276372378) translate(0 39.216796875)"/></g><path d="M4062.02 1612.5a6 6 0 0 1 6-6h219.88a6 6 0 0 1 6 6v82.5a6 6 0 0 1-6 6h-219.88a6 6 0 0 1-6-6z" stroke="#00c2a8" stroke-width="2" fill="#00c2a8"/><path d="M4068.02 1612.5a6 6 0 0 1 6-6h213.88a6 6 0 0 1 6 6v82.5a6 6 0 0 1-6 6h-213.88a6 6 0 0 1-6-6z" stroke="#00c2a8" stroke-width="2" fill="#fff"/><g><use xlink:href="#D" transform="matrix(1,0,0,1,4085.0223936287402,1621.4887745122378) translate(0 17.4375)"/><use xlink:href="#E" transform="matrix(1,0,0,1,4085.0223936287402,1621.4887745122378) translate(65.1884765625 17.4375)"/><use xlink:href="#F" transform="matrix(1,0,0,1,4085.0223936287402,1621.4887745122378) translate(0 39.216796875)"/></g><path d="M2852.77 1719h299v131h-299z" fill="#9391ff"/><path d="M3151.77 1718h2911.5v132h-2911.5z" fill="#fff" fill-opacity="0"/><path d="M2851.77 1718h300v131h-300zM6063.28 1717v132M6063.28 1849h-2911.5M3151.77 1848v-130M3151.77 1718h2911.5" stroke="#a9afb8" stroke-width="2" fill="#fff" fill-opacity="0"/><g><use xlink:href="#G" transform="matrix(1,0,0,1,2871.77408926512,1774.386821387238) translate(63.91111111111111 13.2)"/></g><path d="M4229.08 1741a6 6 0 0 1 6-6h1484.7a6 6 0 0 1 6 6v61a6 6 0 0 1-6 6h-1484.7a6 6 0 0 1-6-6z" stroke="#9391ff" stroke-width="2" fill="#9391ff"/><path d="M4235.08 1741a6 6 0 0 1 6-6h1478.7a6 6 0 0 1 6 6v61a6 6 0 0 1-6 6h-1478.7a6 6 0 0 1-6-6z" stroke="#9391ff" stroke-width="2" fill="#fff"/><g><use xlink:href="#H" transform="matrix(1,0,0,1,4252.075887868776,1749.9868213872378) translate(0 17.4375)"/><use xlink:href="#I" transform="matrix(1,0,0,1,4252.075887868776,1749.9868213872378) translate(118.986328125 17.4375)"/><use xlink:href="#J" transform="matrix(1,0,0,1,4252.075887868776,1749.9868213872378) translate(145.564453125 17.4375)"/></g><path d="M2852.77 1851h299v464.98h-299z" fill="#6db1ff"/><path d="M3151.77 1850h2911.5v465.98h-2911.5z" fill="#fff" fill-opacity="0"/><path d="M2851.77 1850h300v464.98h-300zM6063.28 1849v465.98M6063.28 2314.98h-2911.5M3151.77 2313.98v-464M3151.77 1850h2911.5" stroke="#a9afb8" stroke-width="2" fill="#fff" fill-opacity="0"/><g><use xlink:href="#K" transform="matrix(1,0,0,1,2871.77408926512,2073.382915137238) translate(105.3111111111111 13.2)"/></g><path d="M4730.24 1873a6 6 0 0 1 6-6h148.28a6 6 0 0 1 6 6v82.48a6 6 0 0 1-6 6h-148.28a6 6 0 0 1-6-6z" stroke="#6db1ff" stroke-width="2" fill="#6db1ff"/><path d="M4736.24 1873a6 6 0 0 1 6-6h142.28a6 6 0 0 1 6 6v82.48a6 6 0 0 1-6 6h-142.28a6 6 0 0 1-6-6z" stroke="#6db1ff" stroke-width="2" fill="#fff"/><g><use xlink:href="#L" transform="matrix(1,0,0,1,4753.236370588881,1881.9868213872378) translate(0 17.4375)"/><use xlink:href="#E" transform="matrix(1,0,0,1,4753.236370588881,1881.9868213872378) translate(61.9541015625 17.4375)"/><use xlink:href="#M" transform="matrix(1,0,0,1,4753.236370588881,1881.9868213872378) translate(0 39.216796875)"/></g><path d="M4897.3 1985.48a6 6 0 0 1 6-6h148.27a6 6 0 0 1 6 6v82.5a6 6 0 0 1-6 6H4903.3a6 6 0 0 1-6-6z" stroke="#6db1ff" stroke-width="2" fill="#6db1ff"/><path d="M4903.3 1985.48a6 6 0 0 1 6-6h142.27a6 6 0 0 1 6 6v82.5a6 6 0 0 1-6 6H4909.3a6 6 0 0 1-6-6z" stroke="#6db1ff" stroke-width="2" fill="#fff"/><g><use xlink:href="#N" transform="matrix(1,0,0,1,4920.2898648289165,1994.4848682622378) translate(0 17.4375)"/><use xlink:href="#I" transform="matrix(1,0,0,1,4920.2898648289165,1994.4848682622378) translate(0 39.216796875)"/><use xlink:href="#O" transform="matrix(1,0,0,1,4920.2898648289165,1994.4848682622378) translate(26.578125 39.216796875)"/></g><path d="M5398.45 2097.98a6 6 0 0 1 6-6h148.28a6 6 0 0 1 6 6v82.5a6 6 0 0 1-6 6h-148.28a6 6 0 0 1-6-6z" stroke="#6db1ff" stroke-width="2" fill="#6db1ff"/><path d="M5404.45 2097.98a6 6 0 0 1 6-6h142.28a6 6 0 0 1 6 6v82.5a6 6 0 0 1-6 6h-142.28a6 6 0 0 1-6-6z" stroke="#6db1ff" stroke-width="2" fill="#fff"/><g><use xlink:href="#P" transform="matrix(1,0,0,1,5421.450347549022,2106.982915137238) translate(0 17.4375)"/><use xlink:href="#E" transform="matrix(1,0,0,1,5421.450347549022,2106.982915137238) translate(52.453125 17.4375)"/><use xlink:href="#O" transform="matrix(1,0,0,1,5421.450347549022,2106.982915137238) translate(0 39.216796875)"/></g><path d="M5565.5 2210.48a6 6 0 0 1 6-6h172.15a6 6 0 0 1 6 6v82.5a6 6 0 0 1-6 6H5571.5a6 6 0 0 1-6-6z" stroke="#6db1ff" stroke-width="2" fill="#6db1ff"/><path d="M5571.5 2210.48a6 6 0 0 1 6-6h166.15a6 6 0 0 1 6 6v82.5a6 6 0 0 1-6 6H5577.5a6 6 0 0 1-6-6z" stroke="#6db1ff" stroke-width="2" fill="#fff"/><g><use xlink:href="#Q" transform="matrix(1,0,0,1,5588.503841789057,2219.480962012238) translate(0 17.4375)"/><use xlink:href="#E" transform="matrix(1,0,0,1,5588.503841789057,2219.480962012238) translate(74.935546875 17.4375)"/><use xlink:href="#O" transform="matrix(1,0,0,1,5588.503841789057,2219.480962012238) translate(0 39.216796875)"/></g><defs><path fill="#fff" d="M789 20c-398 0-667-293-667-764 0-473 273-766 655-766 315 0 558 198 612 487h-196c-61-191-204-311-415-311-262 0-471 207-471 590 0 380 208 588 482 588 249 0 420-165 425-427H828v-166h572v163c0 370-256 606-611 606" id="R"/><path fill="#fff" d="M628 24c-324 0-524-230-524-574 0-343 198-582 503-582 237 0 487 146 487 559v75H286c9 234 145 362 343 362 132 0 231-58 273-172l174 48C1024-91 857 24 628 24zM287-650h624c-17-190-120-322-304-322-192 0-309 151-320 322" id="S"/><path fill="#fff" d="M158 0v-1118h174v172h12c41-113 157-188 290-188 26 0 70 2 91 3v181c-11-2-60-10-108-10-161 0-279 109-279 260V0H158" id="T"/><path fill="#fff" d="M338-670V0H158v-1118h173l1 207c72-158 192-221 342-221 226 0 378 139 378 422V0H872v-695c0-172-96-275-252-275-161 0-282 109-282 300" id="U"/><path fill="#fff" d="M613 24c-304 0-509-231-509-576 0-350 205-580 509-580 216 0 392 114 453 309l-173 49c-33-115-133-197-280-197-223 0-326 196-326 419 0 220 103 415 326 415 150 0 252-85 285-206l172 49C1010-95 832 24 613 24" id="V"/><path fill="#fff" d="M158 0v-1118h180V0H158zm91-1301c-68 0-125-53-125-119s57-119 125-119c69 0 126 53 126 119s-57 119-126 119" id="W"/><path fill="#fff" d="M471 26C259 26 90-98 90-318c0-256 228-303 435-329 202-27 287-16 287-108 0-139-79-219-234-219-161 0-248 86-283 164l-173-57c86-203 278-265 451-265 150 0 419 46 419 395V0H815v-152h-12C765-73 660 26 471 26zm31-159c199 0 310-134 310-271v-155c-30 35-226 55-295 64-131 17-246 59-246 186 0 116 97 176 231 176" id="X"/><path fill="#fff" d="M158 0v-1118h175l1 205c55-151 181-225 313-225 147 0 245 90 285 228 53-141 190-228 352-228 194 0 352 125 352 384V0h-181v-749c0-161-105-225-225-225-151 0-243 103-243 244V0H807v-767c0-124-93-207-219-207-131 0-250 92-250 270V0H158" id="Y"/><path fill="#fff" d="M598-1118v154H368v674c0 100 37 144 132 144 23 0 62-6 92-12L629-6c-37 13-88 20-134 20-193 0-307-107-307-290v-688H20v-154h168v-266h180v266h230" id="Z"/><path fill="#fff" d="M613 24c-304 0-509-231-509-576 0-350 205-580 509-580 305 0 511 230 511 580 0 345-206 576-511 576zm0-161c226 0 329-195 329-415 0-222-103-419-329-419-223 0-326 196-326 419 0 220 103 415 326 415" id="aa"/><g id="a"><use transform="matrix(0.015190972222222224,0,0,0.015190972222222224,0,0)" xlink:href="#R"/><use transform="matrix(0.015190972222222224,0,0,0.015190972222222224,23.211805555555557,0)" xlink:href="#S"/><use transform="matrix(0.015190972222222224,0,0,0.015190972222222224,41.34982638888889,0)" xlink:href="#T"/><use transform="matrix(0.015190972222222224,0,0,0.015190972222222224,52.54557291666667,0)" xlink:href="#S"/><use transform="matrix(0.015190972222222224,0,0,0.015190972222222224,70.68359375,0)" xlink:href="#U"/><use transform="matrix(0.015190972222222224,0,0,0.015190972222222224,89.06467013888889,0)" xlink:href="#V"/><use transform="matrix(0.015190972222222224,0,0,0.015190972222222224,106.83810763888889,0)" xlink:href="#W"/><use transform="matrix(0.015190972222222224,0,0,0.015190972222222224,114.37282986111111,0)" xlink:href="#X"/><use transform="matrix(0.015190972222222224,0,0,0.015190972222222224,131.84244791666669,0)" xlink:href="#Y"/><use transform="matrix(0.015190972222222224,0,0,0.015190972222222224,159.09505208333334,0)" xlink:href="#S"/><use transform="matrix(0.015190972222222224,0,0,0.015190972222222224,177.23307291666669,0)" xlink:href="#U"/><use transform="matrix(0.015190972222222224,0,0,0.015190972222222224,195.61414930555557,0)" xlink:href="#Z"/><use transform="matrix(0.015190972222222224,0,0,0.015190972222222224,205.48828125,0)" xlink:href="#aa"/></g><path fill="#fff" d="M577 24c-279 0-473-224-473-580 0-354 195-576 474-576 218 0 287 134 324 193h14v-551h180V0H922v-173h-20C865-111 790 24 577 24zm27-161c203 0 314-172 314-421 0-247-108-413-314-413-212 0-317 181-317 413 0 235 108 421 317 421" id="ab"/><g id="b"><use transform="matrix(0.015190972222222224,0,0,0.015190972222222224,0,0)" xlink:href="#ab"/><use transform="matrix(0.015190972222222224,0,0,0.015190972222222224,19.049479166666668,0)" xlink:href="#X"/></g><path fill="#fff" d="M1096 418H916v-591h-14C865-111 790 24 577 24c-279 0-473-224-473-580 0-354 195-576 474-576 218 0 287 134 324 193h20v-179h174V418zM604-137c203 0 314-172 314-421 0-247-108-413-314-413-212 0-317 181-317 413 0 235 108 421 317 421" id="ac"/><path fill="#fff" d="M537 14c-226 0-379-139-379-422v-710h180v695c0 172 97 275 253 275 160 0 281-109 281-300v-670h181V0H879v-209C806-46 684 14 537 14" id="ad"/><path fill="#fff" d="M158 418v-1536h174v179h20c37-59 106-193 324-193 279 0 474 222 474 576 0 356-194 580-473 580-213 0-288-135-325-197h-14v591H158zm492-555c209 0 317-186 317-421 0-232-105-413-317-413-206 0-314 166-314 413 0 249 111 421 314 421" id="ae"/><g id="c"><use transform="matrix(0.015190972222222224,0,0,0.015190972222222224,0,0)" xlink:href="#S"/><use transform="matrix(0.015190972222222224,0,0,0.015190972222222224,18.138020833333336,0)" xlink:href="#ac"/><use transform="matrix(0.015190972222222224,0,0,0.015190972222222224,37.1875,0)" xlink:href="#ad"/><use transform="matrix(0.015190972222222224,0,0,0.015190972222222224,55.583767361111114,0)" xlink:href="#W"/><use transform="matrix(0.015190972222222224,0,0,0.015190972222222224,63.11848958333334,0)" xlink:href="#ae"/><use transform="matrix(0.015190972222222224,0,0,0.015190972222222224,82.16796875,0)" xlink:href="#S"/></g><path fill="#4c535d" d="M199 0l-22-63H83L61 0H9l90-248h61L250 0h-51zm-33-102l-36-108c-10 38-24 72-36 108h72" id="af"/><path fill="#4c535d" d="M85 4C-2 5 27-109 22-190h50c7 57-23 150 33 157 60-5 35-97 40-157h50l1 190h-47c-2-12 1-28-3-38-12 25-28 42-61 42" id="ag"/><path fill="#4c535d" d="M195-6C206 82 75 100 31 46c-4-6-6-13-8-21l49-6c3 16 16 24 34 25 40 0 42-37 40-79-11 22-30 35-61 35-53 0-70-43-70-97 0-56 18-96 73-97 30 0 46 14 59 34l2-30h47zm-90-29c32 0 41-27 41-63 0-35-9-62-40-62-32 0-39 29-40 63 0 36 9 62 39 62" id="ah"/><path fill="#4c535d" d="M137-138c1-29-70-34-71-4 15 46 118 7 119 86 1 83-164 76-172 9l43-7c4 19 20 25 44 25 33 8 57-30 24-41C81-84 22-81 20-136c-2-80 154-74 161-7" id="ai"/><path fill="#4c535d" d="M115-3C79 11 28 4 28-45v-112H4v-33h27l15-45h31v45h36v33H77v99c-1 23 16 31 38 25v30" id="aj"/><g id="d"><use transform="matrix(0.05,0,0,0.05,0,0)" xlink:href="#af"/><use transform="matrix(0.05,0,0,0.05,12.950000000000001,0)" xlink:href="#ag"/><use transform="matrix(0.05,0,0,0.05,23.900000000000002,0)" xlink:href="#ah"/><use transform="matrix(0.05,0,0,0.05,34.85,0)" xlink:href="#ag"/><use transform="matrix(0.05,0,0,0.05,45.800000000000004,0)" xlink:href="#ai"/><use transform="matrix(0.05,0,0,0.05,55.800000000000004,0)" xlink:href="#aj"/></g><path fill="#4c535d" d="M169-182c-1-43-94-46-97-3 18 66 151 10 154 114 3 95-165 93-204 36-6-8-10-19-12-30l50-8c3 46 112 56 116 5-17-69-150-10-154-114-4-87 153-88 188-35 5 8 8 18 10 28" id="ak"/><path fill="#4c535d" d="M185-48c-13 30-37 53-82 52C43 2 14-33 14-96s30-98 90-98c62 0 83 45 84 108H66c0 31 8 55 39 56 18 0 30-7 34-22zm-45-69c5-46-57-63-70-21-2 6-4 13-4 21h74" id="al"/><path fill="#4c535d" d="M135-194c53 0 70 44 70 98 0 56-19 98-73 100-31 1-45-17-59-34 3 33 2 69 2 105H25l-1-265h48c2 10 0 23 3 31 11-24 29-35 60-35zM114-30c33 0 39-31 40-66 0-38-9-64-40-64-56 0-55 130 0 130" id="am"/><path fill="#4c535d" d="M220-157c-53 9-28 100-34 157h-49v-107c1-27-5-49-29-50C55-147 81-57 75 0H25l-1-190h47c2 12-1 28 3 38 10-53 101-56 108 0 13-22 24-43 59-42 82 1 51 116 57 194h-49v-107c-1-25-5-48-29-50" id="an"/><path fill="#4c535d" d="M135-194c52 0 70 43 70 98 0 56-19 99-73 100-30 1-46-15-58-35L72 0H24l1-261h50v104c11-23 29-37 60-37zM114-30c31 0 40-27 40-66 0-37-7-63-39-63s-41 28-41 65c0 36 8 64 40 64" id="ao"/><path fill="#4c535d" d="M135-150c-39-12-60 13-60 57V0H25l-1-190h47c2 13-1 29 3 40 6-28 27-53 61-41v41" id="ap"/><g id="e"><use transform="matrix(0.05,0,0,0.05,0,0)" xlink:href="#ak"/><use transform="matrix(0.05,0,0,0.05,12,0)" xlink:href="#al"/><use transform="matrix(0.05,0,0,0.05,22,0)" xlink:href="#am"/><use transform="matrix(0.05,0,0,0.05,32.95,0)" xlink:href="#aj"/><use transform="matrix(0.05,0,0,0.05,38.900000000000006,0)" xlink:href="#al"/><use transform="matrix(0.05,0,0,0.05,48.900000000000006,0)" xlink:href="#an"/><use transform="matrix(0.05,0,0,0.05,64.9,0)" xlink:href="#ao"/><use transform="matrix(0.05,0,0,0.05,75.85000000000001,0)" xlink:href="#al"/><use transform="matrix(0.05,0,0,0.05,85.85000000000001,0)" xlink:href="#ap"/></g><path fill="#4c535d" d="M140-251c80 0 125 45 125 126S219 4 139 4C58 4 15-44 15-125s44-126 125-126zm-1 214c52 0 73-35 73-88 0-50-21-86-72-86-52 0-73 35-73 86s22 88 72 88" id="aq"/><path fill="#4c535d" d="M190-63c-7 42-38 67-86 67-59 0-84-38-90-98-12-110 154-137 174-36l-49 2c-2-19-15-32-35-32-30 0-35 28-38 64-6 74 65 87 74 30" id="ar"/><path fill="#4c535d" d="M110-194c64 0 96 36 96 99 0 64-35 99-97 99-61 0-95-36-95-99 0-62 34-99 96-99zm-1 164c35 0 45-28 45-65 0-40-10-65-43-65-34 0-45 26-45 65 0 36 10 65 43 65" id="as"/><g id="f"><use transform="matrix(0.05,0,0,0.05,0,0)" xlink:href="#aq"/><use transform="matrix(0.05,0,0,0.05,14,0)" xlink:href="#ar"/><use transform="matrix(0.05,0,0,0.05,24,0)" xlink:href="#aj"/><use transform="matrix(0.05,0,0,0.05,29.950000000000003,0)" xlink:href="#as"/><use transform="matrix(0.05,0,0,0.05,40.9,0)" xlink:href="#ao"/><use transform="matrix(0.05,0,0,0.05,51.85,0)" xlink:href="#al"/><use transform="matrix(0.05,0,0,0.05,61.85,0)" xlink:href="#ap"/></g><path fill="#4c535d" d="M175 0L67-191c6 58 2 128 3 191H24v-248h59L193-55c-6-58-2-129-3-193h46V0h-61" id="at"/><path fill="#4c535d" d="M128 0H69L1-190h53L99-40l48-150h52" id="au"/><g id="g"><use transform="matrix(0.05,0,0,0.05,0,0)" xlink:href="#at"/><use transform="matrix(0.05,0,0,0.05,12.950000000000001,0)" xlink:href="#as"/><use transform="matrix(0.05,0,0,0.05,23.900000000000002,0)" xlink:href="#au"/><use transform="matrix(0.05,0,0,0.05,33.900000000000006,0)" xlink:href="#al"/><use transform="matrix(0.05,0,0,0.05,43.900000000000006,0)" xlink:href="#an"/><use transform="matrix(0.05,0,0,0.05,59.900000000000006,0)" xlink:href="#ao"/><use transform="matrix(0.05,0,0,0.05,70.85000000000001,0)" xlink:href="#al"/><use transform="matrix(0.05,0,0,0.05,80.85000000000001,0)" xlink:href="#ap"/></g><path fill="#282c33" d="M180 0v-1490h908v168H370v486h669v168H370v500h727V0H180" id="av"/><path fill="#282c33" d="M598-1118v154H368v674c0 100 37 144 132 144 23 0 62-6 92-12L629-6c-37 13-88 20-134 20-193 0-307-107-307-290v-688H20v-154h168v-266h180v266h230" id="aw"/><path fill="#282c33" d="M471 26C259 26 90-98 90-318c0-256 228-303 435-329 202-27 287-16 287-108 0-139-79-219-234-219-161 0-248 86-283 164l-173-57c86-203 278-265 451-265 150 0 419 46 419 395V0H815v-152h-12C765-73 660 26 471 26zm31-159c199 0 310-134 310-271v-155c-30 35-226 55-295 64-131 17-246 59-246 186 0 116 97 176 231 176" id="ax"/><path fill="#282c33" d="M158 418v-1536h174v179h20c37-59 106-193 324-193 279 0 474 222 474 576 0 356-194 580-473 580-213 0-288-135-325-197h-14v591H158zm492-555c209 0 317-186 317-421 0-232-105-413-317-413-206 0-314 166-314 413 0 249 111 421 314 421" id="ay"/><g id="h"><use transform="matrix(0.008173828125000001,0,0,0.008173828125000001,0,0)" xlink:href="#av"/><use transform="matrix(0.008173828125000001,0,0,0.008173828125000001,10.061982421875001,0)" xlink:href="#aw"/><use transform="matrix(0.008173828125000001,0,0,0.008173828125000001,15.620185546875003,0)" xlink:href="#ax"/><use transform="matrix(0.008173828125000001,0,0,0.008173828125000001,25.020087890625007,0)" xlink:href="#ay"/><use transform="matrix(0.008173828125000001,0,0,0.008173828125000001,35.43354492187501,0)" xlink:href="#ax"/></g><path fill="#282c33" d="M626 20c-262 0-458-168-468-396h184c12 133 134 229 284 229 180 0 311-137 311-326 0-192-136-335-323-335-92 0-196 33-255 78l-178-22 88-738h784v167H429l-51 435h8c61-51 160-87 263-87 273 0 474 211 474 499 0 286-210 496-497 496" id="az"/><use transform="matrix(0.008173828125000001,0,0,0.008173828125000001,0,0)" xlink:href="#az" id="i"/><path fill="#282c33" d="M120-303v-155l652-1032h231v1020h202v167h-202V0H821v-303H120zm702-167v-782h-12L323-482v12h499" id="aA"/><use transform="matrix(0.008173828125000001,0,0,0.008173828125000001,0,0)" xlink:href="#aA" id="j"/><path fill="#282c33" d="M635 20c-292 0-500-160-510-396h192c11 142 145 229 315 229 187 0 323-105 323-260 0-161-125-274-346-274H488v-165h121c174 0 294-100 294-254 0-148-104-245-266-245-152 0-291 85-297 230H157c8-234 222-395 484-395 278 0 448 188 448 400 0 168-95 291-247 336v12c190 31 301 169 301 357 0 244-216 425-508 425" id="aB"/><use transform="matrix(0.008173828125000001,0,0,0.008173828125000001,0,0)" xlink:href="#aB" id="k"/><path fill="#282c33" d="M154 0v-137l495-537c165-179 249-281 249-418 0-156-121-253-280-253-170 0-278 110-278 278H158c0-264 200-443 465-443 266 0 455 183 455 416 0 161-73 288-336 568L416-179v12h687V0H154" id="aC"/><use transform="matrix(0.008173828125000001,0,0,0.008173828125000001,0,0)" xlink:href="#aC" id="l"/><path fill="#282c33" d="M653-1490V0H466v-1314h-10L96-1047v-204l324-239h233" id="aD"/><use transform="matrix(0.008173828125000001,0,0,0.008173828125000001,0,0)" xlink:href="#aD" id="m"/><path d="M169-182c-1-43-94-46-97-3 18 66 151 10 154 114 3 95-165 93-204 36-6-8-10-19-12-30l50-8c3 46 112 56 116 5-17-69-150-10-154-114-4-87 153-88 188-35 5 8 8 18 10 28" id="aE"/><path d="M115-3C79 11 28 4 28-45v-112H4v-33h27l15-45h31v45h36v33H77v99c-1 23 16 31 38 25v30" id="aF"/><path d="M133-34C117-15 103 5 69 4 32 3 11-16 11-54c-1-60 55-63 116-61 1-26-3-47-28-47-18 1-26 9-28 27l-52-2c7-38 36-58 82-57s74 22 75 68l1 82c-1 14 12 18 25 15v27c-30 8-71 5-69-32zm-48 3c29 0 43-24 42-57-32 0-66-3-65 30 0 17 8 27 23 27" id="aG"/><path d="M147 0L96-86 75-71V0H25v-261h50v150l67-79h53l-66 74L201 0h-54" id="aH"/><path d="M185-48c-13 30-37 53-82 52C43 2 14-33 14-96s30-98 90-98c62 0 83 45 84 108H66c0 31 8 55 39 56 18 0 30-7 34-22zm-45-69c5-46-57-63-70-21-2 6-4 13-4 21h74" id="aI"/><path d="M114-157C55-157 80-60 75 0H25v-261h50l-1 109c12-26 28-41 61-42 86-1 58 113 63 194h-50c-7-57 23-157-34-157" id="aJ"/><path d="M110-194c64 0 96 36 96 99 0 64-35 99-97 99-61 0-95-36-95-99 0-62 34-99 96-99zm-1 164c35 0 45-28 45-65 0-40-10-65-43-65-34 0-45 26-45 65 0 36 10 65 43 65" id="aK"/><path d="M25 0v-261h50V0H25" id="aL"/><path d="M88-194c31-1 46 15 58 34l-1-101h50l1 261h-48c-2-10 0-23-3-31C134-8 116 4 84 4 32 4 16-41 15-95c0-56 19-97 73-99zm17 164c33 0 40-30 41-66 1-37-9-64-41-64s-38 30-39 65c0 43 13 65 39 65" id="aM"/><path d="M135-150c-39-12-60 13-60 57V0H25l-1-190h47c2 13-1 29 3 40 6-28 27-53 61-41v41" id="aN"/><path d="M137-138c1-29-70-34-71-4 15 46 118 7 119 86 1 83-164 76-172 9l43-7c4 19 20 25 44 25 33 8 57-30 24-41C81-84 22-81 20-136c-2-80 154-74 161-7" id="aO"/><g id="n"><use transform="matrix(0.044444444444444446,0,0,0.044444444444444446,0,0)" xlink:href="#aE"/><use transform="matrix(0.044444444444444446,0,0,0.044444444444444446,10.666666666666668,0)" xlink:href="#aF"/><use transform="matrix(0.044444444444444446,0,0,0.044444444444444446,15.955555555555556,0)" xlink:href="#aG"/><use transform="matrix(0.044444444444444446,0,0,0.044444444444444446,24.844444444444445,0)" xlink:href="#aH"/><use transform="matrix(0.044444444444444446,0,0,0.044444444444444446,33.733333333333334,0)" xlink:href="#aI"/><use transform="matrix(0.044444444444444446,0,0,0.044444444444444446,42.62222222222222,0)" xlink:href="#aJ"/><use transform="matrix(0.044444444444444446,0,0,0.044444444444444446,52.355555555555554,0)" xlink:href="#aK"/><use transform="matrix(0.044444444444444446,0,0,0.044444444444444446,62.08888888888889,0)" xlink:href="#aL"/><use transform="matrix(0.044444444444444446,0,0,0.044444444444444446,66.53333333333333,0)" xlink:href="#aM"/><use transform="matrix(0.044444444444444446,0,0,0.044444444444444446,76.26666666666667,0)" xlink:href="#aI"/><use transform="matrix(0.044444444444444446,0,0,0.044444444444444446,85.15555555555555,0)" xlink:href="#aN"/><use transform="matrix(0.044444444444444446,0,0,0.044444444444444446,91.37777777777778,0)" xlink:href="#aO"/></g><path d="M645 0H180v-1490h484c435 0 692 280 692 742 0 466-257 748-711 748zM370-168h263c363 0 539-218 539-580 0-358-176-574-521-574H370v1154" id="aP"/><path d="M628 24c-324 0-524-230-524-574 0-343 198-582 503-582 237 0 487 146 487 559v75H286c9 234 145 362 343 362 132 0 231-58 273-172l174 48C1024-91 857 24 628 24zM287-650h624c-17-190-120-322-304-322-192 0-309 151-320 322" id="aQ"/><path d="M678-1118v154H420V0H240v-964H20v-154h220v-149c0-194 155-293 318-293 85 0 141 18 168 30l-50 154c-19-6-47-17-97-17-111 0-159 58-159 166v109h258" id="aR"/><path d="M158 0v-1118h180V0H158zm91-1301c-68 0-125-53-125-119s57-119 125-119c69 0 126 53 126 119s-57 119-126 119" id="aS"/><path d="M338-670V0H158v-1118h173l1 207c72-158 192-221 342-221 226 0 378 139 378 422V0H872v-695c0-172-96-275-252-275-161 0-282 109-282 300" id="aT"/><path d="M502 418V313h118c73 0 98-17 98-66s-25-65-98-65h-82l21-161C285-4 104-228 104-552c0-350 205-580 509-580 216 0 392 114 453 309l-173 49c-33-115-133-197-280-197-223 0-326 196-326 419 0 220 103 415 326 415 150 0 252-85 285-206l172 49C1015-110 859 5 663 22v64c130 5 189 54 189 162 0 118-71 170-231 170H502" id="aU"/><path d="M471 26C259 26 90-98 90-318c0-256 228-303 435-329 202-27 287-16 287-108 0-139-79-219-234-219-161 0-248 86-283 164l-173-57c86-203 278-265 451-265 150 0 419 46 419 395V0H815v-152h-12C765-73 660 26 471 26zm31-159c199 0 310-134 310-271v-155c-30 35-226 55-295 64-131 17-246 59-246 186 0 116 97 176 231 176zm187-1180c-99 0-192-83-243-83-35 0-51 40-53 79H267c4-120 55-208 162-208 104 0 174 85 241 85 33 0 49-23 56-81h123c-4 126-62 208-160 208" id="aV"/><path d="M613 24c-304 0-509-231-509-576 0-350 205-580 509-580 305 0 511 230 511 580 0 345-206 576-511 576zm0-161c226 0 329-195 329-415 0-222-103-419-329-419-223 0-326 196-326 419 0 220 103 415 326 415" id="aW"/><g id="o"><use transform="matrix(0.0087890625,0,0,0.0087890625,0,0)" xlink:href="#aP"/><use transform="matrix(0.0087890625,0,0,0.0087890625,12.990234375,0)" xlink:href="#aQ"/><use transform="matrix(0.0087890625,0,0,0.0087890625,23.484375,0)" xlink:href="#aR"/><use transform="matrix(0.0087890625,0,0,0.0087890625,30.146484375,0)" xlink:href="#aS"/><use transform="matrix(0.0087890625,0,0,0.0087890625,34.505859375,0)" xlink:href="#aT"/><use transform="matrix(0.0087890625,0,0,0.0087890625,45.140625,0)" xlink:href="#aS"/><use transform="matrix(0.0087890625,0,0,0.0087890625,49.5,0)" xlink:href="#aU"/><use transform="matrix(0.0087890625,0,0,0.0087890625,59.958984375,0)" xlink:href="#aV"/><use transform="matrix(0.0087890625,0,0,0.0087890625,70.06640625,0)" xlink:href="#aW"/></g><path d="M577 24c-279 0-473-224-473-580 0-354 195-576 474-576 218 0 287 134 324 193h14v-551h180V0H922v-173h-20C865-111 790 24 577 24zm27-161c203 0 314-172 314-421 0-247-108-413-314-413-212 0-317 181-317 413 0 235 108 421 317 421" id="aX"/><g id="p"><use transform="matrix(0.0087890625,0,0,0.0087890625,0,0)" xlink:href="#aX"/><use transform="matrix(0.0087890625,0,0,0.0087890625,11.021484375,0)" xlink:href="#aW"/></g><path d="M598-1118v154H368v674c0 100 37 144 132 144 23 0 62-6 92-12L629-6c-37 13-88 20-134 20-193 0-307-107-307-290v-688H20v-154h168v-266h180v266h230" id="aY"/><path d="M158 0v-1118h175l1 205c55-151 181-225 313-225 147 0 245 90 285 228 53-141 190-228 352-228 194 0 352 125 352 384V0h-181v-749c0-161-105-225-225-225-151 0-243 103-243 244V0H807v-767c0-124-93-207-219-207-131 0-250 92-250 270V0H158" id="aZ"/><path d="M471 26C259 26 90-98 90-318c0-256 228-303 435-329 202-27 287-16 287-108 0-139-79-219-234-219-161 0-248 86-283 164l-173-57c86-203 278-265 451-265 150 0 419 46 419 395V0H815v-152h-12C765-73 660 26 471 26zm31-159c199 0 310-134 310-271v-155c-30 35-226 55-295 64-131 17-246 59-246 186 0 116 97 176 231 176" id="ba"/><g id="q"><use transform="matrix(0.0087890625,0,0,0.0087890625,0,0)" xlink:href="#aY"/><use transform="matrix(0.0087890625,0,0,0.0087890625,5.712890625,0)" xlink:href="#aQ"/><use transform="matrix(0.0087890625,0,0,0.0087890625,16.20703125,0)" xlink:href="#aZ"/><use transform="matrix(0.0087890625,0,0,0.0087890625,31.974609375,0)" xlink:href="#ba"/></g><path d="M613 24c-304 0-509-231-509-576 0-350 205-580 509-580 216 0 392 114 453 309l-173 49c-33-115-133-197-280-197-223 0-326 196-326 419 0 220 103 415 326 415 150 0 252-85 285-206l172 49C1010-95 832 24 613 24" id="bb"/><path d="M537 14c-226 0-379-139-379-422v-710h180v695c0 172 97 275 253 275 160 0 281-109 281-300v-670h181V0H879v-209C806-46 684 14 537 14" id="bc"/><g id="r"><use transform="matrix(0.0087890625,0,0,0.0087890625,0,0)" xlink:href="#aP"/><use transform="matrix(0.0087890625,0,0,0.0087890625,12.990234375,0)" xlink:href="#aW"/><use transform="matrix(0.0087890625,0,0,0.0087890625,23.783203125,0)" xlink:href="#bb"/><use transform="matrix(0.0087890625,0,0,0.0087890625,34.06640625,0)" xlink:href="#bc"/><use transform="matrix(0.0087890625,0,0,0.0087890625,44.7099609375,0)" xlink:href="#aZ"/><use transform="matrix(0.0087890625,0,0,0.0087890625,60.4775390625,0)" xlink:href="#aQ"/><use transform="matrix(0.0087890625,0,0,0.0087890625,70.9716796875,0)" xlink:href="#aT"/><use transform="matrix(0.0087890625,0,0,0.0087890625,81.6064453125,0)" xlink:href="#aY"/><use transform="matrix(0.0087890625,0,0,0.0087890625,87.5830078125,0)" xlink:href="#ba"/><use transform="matrix(0.0087890625,0,0,0.0087890625,97.6904296875,0)" xlink:href="#aU"/><use transform="matrix(0.0087890625,0,0,0.0087890625,108.1494140625,0)" xlink:href="#aV"/><use transform="matrix(0.0087890625,0,0,0.0087890625,118.2568359375,0)" xlink:href="#aW"/></g><g id="s"><use transform="matrix(0.0087890625,0,0,0.0087890625,0,0)" xlink:href="#aX"/><use transform="matrix(0.0087890625,0,0,0.0087890625,11.021484375,0)" xlink:href="#aW"/></g><path d="M783 20c-382 0-661-292-661-764 0-473 279-766 661-766 302 0 548 182 601 489h-190c-42-204-217-313-411-313-268 0-476 208-476 590 0 381 209 588 476 588 195 0 369-110 411-313h190c-52 303-296 489-601 489" id="bd"/><path d="M65 0l393-574-370-544h210c88 136 192 297 267 435 67-142 176-302 264-435h206L661-564 1053 0H844c-94-144-206-310-287-458C484-308 366-142 273 0H65" id="be"/><g id="t"><use transform="matrix(0.0087890625,0,0,0.0087890625,0,0)" xlink:href="#bd"/><use transform="matrix(0.0087890625,0,0,0.0087890625,13.1484375,0)" xlink:href="#aW"/><use transform="matrix(0.0087890625,0,0,0.0087890625,23.94140625,0)" xlink:href="#aT"/><use transform="matrix(0.0087890625,0,0,0.0087890625,34.576171875,0)" xlink:href="#aY"/><use transform="matrix(0.0087890625,0,0,0.0087890625,40.2890625,0)" xlink:href="#aQ"/><use transform="matrix(0.0087890625,0,0,0.0087890625,50.37890625,0)" xlink:href="#be"/><use transform="matrix(0.0087890625,0,0,0.0087890625,60.556640625,0)" xlink:href="#aY"/><use transform="matrix(0.0087890625,0,0,0.0087890625,66.26953125,0)" xlink:href="#aW"/></g><path d="M52 0l541-1490h220L1361 0h-200l-149-416H398L254 0H52zm404-582h497c-103-290-145-390-251-756-108 377-145 460-246 756" id="bf"/><path d="M158 418v-1536h174v179h20c37-59 106-193 324-193 279 0 474 222 474 576 0 356-194 580-473 580-213 0-288-135-325-197h-14v591H158zm492-555c209 0 317-186 317-421 0-232-105-413-317-413-206 0-314 166-314 413 0 249 111 421 314 421" id="bg"/><path d="M158 0v-1118h174v172h12c41-113 157-188 290-188 26 0 70 2 91 3v181c-11-2-60-10-108-10-161 0-279 109-279 260V0H158" id="bh"/><path d="M538 24C308 24 148-78 108-271l171-41c32 123 123 178 257 178 156 0 256-77 256-169 0-77-54-128-164-154l-186-44c-203-48-300-148-300-305 0-192 176-326 414-326 230 0 351 112 402 269l-163 42c-31-80-94-158-238-158-133 0-233 69-233 162 0 83 57 129 188 160l169 40c203 48 298 149 298 302 0 196-179 339-441 339" id="bi"/><g id="u"><use transform="matrix(0.0087890625,0,0,0.0087890625,0,0)" xlink:href="#bf"/><use transform="matrix(0.0087890625,0,0,0.0087890625,12.4189453125,0)" xlink:href="#bg"/><use transform="matrix(0.0087890625,0,0,0.0087890625,23.4404296875,0)" xlink:href="#bh"/><use transform="matrix(0.0087890625,0,0,0.0087890625,29.91796875,0)" xlink:href="#aQ"/><use transform="matrix(0.0087890625,0,0,0.0087890625,40.412109375,0)" xlink:href="#bi"/><use transform="matrix(0.0087890625,0,0,0.0087890625,49.9130859375,0)" xlink:href="#aQ"/><use transform="matrix(0.0087890625,0,0,0.0087890625,60.4072265625,0)" xlink:href="#aT"/><use transform="matrix(0.0087890625,0,0,0.0087890625,71.0419921875,0)" xlink:href="#aY"/><use transform="matrix(0.0087890625,0,0,0.0087890625,77.0185546875,0)" xlink:href="#ba"/><use transform="matrix(0.0087890625,0,0,0.0087890625,87.1259765625,0)" xlink:href="#aU"/><use transform="matrix(0.0087890625,0,0,0.0087890625,97.5849609375,0)" xlink:href="#aV"/><use transform="matrix(0.0087890625,0,0,0.0087890625,107.6923828125,0)" xlink:href="#aW"/></g><path d="M338-1490V0H158v-1490h180" id="bj"/><g id="v"><use transform="matrix(0.0087890625,0,0,0.0087890625,0,0)" xlink:href="#aR"/><use transform="matrix(0.0087890625,0,0,0.0087890625,6.662109375,0)" xlink:href="#aS"/><use transform="matrix(0.0087890625,0,0,0.0087890625,11.021484375,0)" xlink:href="#aT"/><use transform="matrix(0.0087890625,0,0,0.0087890625,21.65625,0)" xlink:href="#ba"/><use transform="matrix(0.0087890625,0,0,0.0087890625,31.763671875,0)" xlink:href="#bj"/></g><path d="M180 0v-1490h908v168H370v486h669v168H370v500h727V0H180" id="bk"/><g id="w"><use transform="matrix(0.0087890625,0,0,0.0087890625,0,0)" xlink:href="#bk"/><use transform="matrix(0.0087890625,0,0,0.0087890625,10.8193359375,0)" xlink:href="#bi"/><use transform="matrix(0.0087890625,0,0,0.0087890625,20.3203125,0)" xlink:href="#bg"/><use transform="matrix(0.0087890625,0,0,0.0087890625,31.341796875,0)" xlink:href="#aQ"/><use transform="matrix(0.0087890625,0,0,0.0087890625,41.8359375,0)" xlink:href="#bb"/><use transform="matrix(0.0087890625,0,0,0.0087890625,52.119140625,0)" xlink:href="#aS"/><use transform="matrix(0.0087890625,0,0,0.0087890625,56.478515625,0)" xlink:href="#aR"/><use transform="matrix(0.0087890625,0,0,0.0087890625,63.140625,0)" xlink:href="#aS"/><use transform="matrix(0.0087890625,0,0,0.0087890625,67.5,0)" xlink:href="#bb"/><use transform="matrix(0.0087890625,0,0,0.0087890625,77.958984375,0)" xlink:href="#ba"/><use transform="matrix(0.0087890625,0,0,0.0087890625,88.06640625,0)" xlink:href="#aU"/><use transform="matrix(0.0087890625,0,0,0.0087890625,98.525390625,0)" xlink:href="#aV"/><use transform="matrix(0.0087890625,0,0,0.0087890625,108.6328125,0)" xlink:href="#aW"/></g><path d="M180 0v-1490h510c348 0 508 209 508 474 0 266-160 477-507 477H370V0H180zm190-706h312c236 0 327-133 327-310 0-176-91-307-329-307H370v617" id="bl"/><path d="M157-1118h181V80c1 225-123 350-364 338V252c126 9 184-48 183-172v-1198zm91-183c-68 0-125-53-125-119s57-119 125-119c69 0 126 53 126 119s-57 119-126 119" id="bm"/><g id="x"><use transform="matrix(0.0087890625,0,0,0.0087890625,0,0)" xlink:href="#bl"/><use transform="matrix(0.0087890625,0,0,0.0087890625,11.49609375,0)" xlink:href="#bh"/><use transform="matrix(0.0087890625,0,0,0.0087890625,17.9736328125,0)" xlink:href="#aW"/><use transform="matrix(0.0087890625,0,0,0.0087890625,28.7666015625,0)" xlink:href="#bm"/><use transform="matrix(0.0087890625,0,0,0.0087890625,33.1259765625,0)" xlink:href="#aQ"/><use transform="matrix(0.0087890625,0,0,0.0087890625,43.6201171875,0)" xlink:href="#aY"/><use transform="matrix(0.0087890625,0,0,0.0087890625,49.3330078125,0)" xlink:href="#aW"/></g><path d="M180 0v-1490h270l367 940c28 72 75 218 110 339 35-117 81-264 110-339l362-940h271V0h-187c2-448-5-837 7-1287-157 497-311 829-483 1287H842C666-458 514-784 354-1284c12 438 5 843 7 1284H180" id="bn"/><path d="M611 442c-248 0-391-105-460-228l146-94c47 65 117 165 314 165 178 0 307-82 307-266v-224h-17C863-141 792-18 576-18c-268 0-472-195-472-546 0-346 197-568 476-568 216 0 288 133 326 193h17v-179h175V29c0 289-215 413-487 413zm-5-620c203 0 314-146 314-390 0-237-108-403-314-403-213 0-319 180-319 403 0 230 109 390 319 390" id="bo"/><g id="y"><use transform="matrix(0.0087890625,0,0,0.0087890625,0,0)" xlink:href="#bn"/><use transform="matrix(0.0087890625,0,0,0.0087890625,16.259765625,0)" xlink:href="#aQ"/><use transform="matrix(0.0087890625,0,0,0.0087890625,26.75390625,0)" xlink:href="#aY"/><use transform="matrix(0.0087890625,0,0,0.0087890625,32.466796875,0)" xlink:href="#aW"/><use transform="matrix(0.0087890625,0,0,0.0087890625,43.259765625,0)" xlink:href="#aX"/><use transform="matrix(0.0087890625,0,0,0.0087890625,54.28125,0)" xlink:href="#aW"/><use transform="matrix(0.0087890625,0,0,0.0087890625,65.07421875,0)" xlink:href="#bj"/><use transform="matrix(0.0087890625,0,0,0.0087890625,69.43359375,0)" xlink:href="#aW"/><use transform="matrix(0.0087890625,0,0,0.0087890625,80.2265625,0)" xlink:href="#bo"/><use transform="matrix(0.0087890625,0,0,0.0087890625,91.265625,0)" xlink:href="#aS"/><use transform="matrix(0.0087890625,0,0,0.0087890625,95.625,0)" xlink:href="#ba"/></g><path d="M24-248c120-7 223 5 221 122C244-46 201 0 124 0H24v-248zM76-40c74 7 117-18 117-86 0-67-45-88-117-82v168" id="bp"/><path d="M25-224v-37h50v37H25zM25 0v-190h50V0H25" id="bq"/><path d="M195-6C206 82 75 100 31 46c-4-6-6-13-8-21l49-6c3 16 16 24 34 25 40 0 42-37 40-79-11 22-30 35-61 35-53 0-70-43-70-97 0-56 18-96 73-97 30 0 46 14 59 34l2-30h47zm-90-29c32 0 41-27 41-63 0-35-9-62-40-62-32 0-39 29-40 63 0 36 9 62 39 62" id="br"/><path d="M135-194c87-1 58 113 63 194h-50c-7-57 23-157-34-157-59 0-34 97-39 157H25l-1-190h47c2 12-1 28 3 38 12-26 28-41 61-42" id="bs"/><g id="z"><use transform="matrix(0.044444444444444446,0,0,0.044444444444444446,0,0)" xlink:href="#bp"/><use transform="matrix(0.044444444444444446,0,0,0.044444444444444446,11.511111111111111,0)" xlink:href="#aI"/><use transform="matrix(0.044444444444444446,0,0,0.044444444444444446,20.4,0)" xlink:href="#aO"/><use transform="matrix(0.044444444444444446,0,0,0.044444444444444446,29.28888888888889,0)" xlink:href="#bq"/><use transform="matrix(0.044444444444444446,0,0,0.044444444444444446,33.733333333333334,0)" xlink:href="#br"/><use transform="matrix(0.044444444444444446,0,0,0.044444444444444446,43.46666666666667,0)" xlink:href="#bs"/></g><path d="M1096 418H916v-591h-14C865-111 790 24 577 24c-279 0-473-224-473-580 0-354 195-576 474-576 218 0 287 134 324 193h20v-179h174V418zM604-137c203 0 314-172 314-421 0-247-108-413-314-413-212 0-317 181-317 413 0 235 108 421 317 421" id="bt"/><g id="A"><use transform="matrix(0.0087890625,0,0,0.0087890625,0,0)" xlink:href="#bf"/><use transform="matrix(0.0087890625,0,0,0.0087890625,12.4189453125,0)" xlink:href="#bh"/><use transform="matrix(0.0087890625,0,0,0.0087890625,18.896484375,0)" xlink:href="#bt"/><use transform="matrix(0.0087890625,0,0,0.0087890625,29.91796875,0)" xlink:href="#bc"/><use transform="matrix(0.0087890625,0,0,0.0087890625,40.5615234375,0)" xlink:href="#aS"/><use transform="matrix(0.0087890625,0,0,0.0087890625,44.9208984375,0)" xlink:href="#aY"/><use transform="matrix(0.0087890625,0,0,0.0087890625,50.6337890625,0)" xlink:href="#aQ"/><use transform="matrix(0.0087890625,0,0,0.0087890625,61.1279296875,0)" xlink:href="#aY"/><use transform="matrix(0.0087890625,0,0,0.0087890625,67.0166015625,0)" xlink:href="#bc"/><use transform="matrix(0.0087890625,0,0,0.0087890625,77.66015625,0)" xlink:href="#bh"/><use transform="matrix(0.0087890625,0,0,0.0087890625,84.4365234375,0)" xlink:href="#ba"/></g><g id="B"><use transform="matrix(0.0087890625,0,0,0.0087890625,0,0)" xlink:href="#aX"/><use transform="matrix(0.0087890625,0,0,0.0087890625,11.021484375,0)" xlink:href="#ba"/></g><g id="C"><use transform="matrix(0.0087890625,0,0,0.0087890625,0,0)" xlink:href="#bi"/><use transform="matrix(0.0087890625,0,0,0.0087890625,9.5009765625,0)" xlink:href="#aW"/><use transform="matrix(0.0087890625,0,0,0.0087890625,20.2939453125,0)" xlink:href="#bj"/><use transform="matrix(0.0087890625,0,0,0.0087890625,24.6533203125,0)" xlink:href="#bc"/><use transform="matrix(0.0087890625,0,0,0.0087890625,35.296875,0)" xlink:href="#aU"/><use transform="matrix(0.0087890625,0,0,0.0087890625,45.755859375,0)" xlink:href="#aV"/><use transform="matrix(0.0087890625,0,0,0.0087890625,55.86328125,0)" xlink:href="#aW"/></g><g id="D"><use transform="matrix(0.0087890625,0,0,0.0087890625,0,0)" xlink:href="#bl"/><use transform="matrix(0.0087890625,0,0,0.0087890625,11.49609375,0)" xlink:href="#bh"/><use transform="matrix(0.0087890625,0,0,0.0087890625,17.9736328125,0)" xlink:href="#aW"/><use transform="matrix(0.0087890625,0,0,0.0087890625,28.7666015625,0)" xlink:href="#bm"/><use transform="matrix(0.0087890625,0,0,0.0087890625,33.1259765625,0)" xlink:href="#aQ"/><use transform="matrix(0.0087890625,0,0,0.0087890625,43.6201171875,0)" xlink:href="#aY"/><use transform="matrix(0.0087890625,0,0,0.0087890625,49.3330078125,0)" xlink:href="#aW"/></g><g id="E"><use transform="matrix(0.0087890625,0,0,0.0087890625,0,0)" xlink:href="#aX"/><use transform="matrix(0.0087890625,0,0,0.0087890625,11.021484375,0)" xlink:href="#aQ"/></g><path d="M370-1490V0H180v-1490h190" id="bu"/><g id="F"><use transform="matrix(0.0087890625,0,0,0.0087890625,0,0)" xlink:href="#bu"/><use transform="matrix(0.0087890625,0,0,0.0087890625,4.833984375,0)" xlink:href="#aT"/><use transform="matrix(0.0087890625,0,0,0.0087890625,15.46875,0)" xlink:href="#aY"/><use transform="matrix(0.0087890625,0,0,0.0087890625,21.181640625,0)" xlink:href="#aQ"/><use transform="matrix(0.0087890625,0,0,0.0087890625,31.67578125,0)" xlink:href="#bh"/><use transform="matrix(0.0087890625,0,0,0.0087890625,38.7333984375,0)" xlink:href="#aR"/><use transform="matrix(0.0087890625,0,0,0.0087890625,45.1142578125,0)" xlink:href="#ba"/><use transform="matrix(0.0087890625,0,0,0.0087890625,55.2216796875,0)" xlink:href="#bb"/><use transform="matrix(0.0087890625,0,0,0.0087890625,65.5048828125,0)" xlink:href="#aQ"/></g><path d="M128 0H69L1-190h53L99-40l48-150h52" id="bv"/><path d="M220-157c-53 9-28 100-34 157h-49v-107c1-27-5-49-29-50C55-147 81-57 75 0H25l-1-190h47c2 12-1 28 3 38 10-53 101-56 108 0 13-22 24-43 59-42 82 1 51 116 57 194h-49v-107c-1-25-5-48-29-50" id="bw"/><g id="G"><use transform="matrix(0.044444444444444446,0,0,0.044444444444444446,0,0)" xlink:href="#bp"/><use transform="matrix(0.044444444444444446,0,0,0.044444444444444446,11.511111111111111,0)" xlink:href="#aI"/><use transform="matrix(0.044444444444444446,0,0,0.044444444444444446,20.4,0)" xlink:href="#aO"/><use transform="matrix(0.044444444444444446,0,0,0.044444444444444446,29.28888888888889,0)" xlink:href="#aI"/><use transform="matrix(0.044444444444444446,0,0,0.044444444444444446,38.17777777777778,0)" xlink:href="#bs"/><use transform="matrix(0.044444444444444446,0,0,0.044444444444444446,47.91111111111111,0)" xlink:href="#bv"/><use transform="matrix(0.044444444444444446,0,0,0.044444444444444446,56.800000000000004,0)" xlink:href="#aK"/><use transform="matrix(0.044444444444444446,0,0,0.044444444444444446,66.53333333333333,0)" xlink:href="#aL"/><use transform="matrix(0.044444444444444446,0,0,0.044444444444444446,70.97777777777777,0)" xlink:href="#bv"/><use transform="matrix(0.044444444444444446,0,0,0.044444444444444446,79.86666666666666,0)" xlink:href="#bq"/><use transform="matrix(0.044444444444444446,0,0,0.044444444444444446,84.3111111111111,0)" xlink:href="#bw"/><use transform="matrix(0.044444444444444446,0,0,0.044444444444444446,98.53333333333333,0)" xlink:href="#aI"/><use transform="matrix(0.044444444444444446,0,0,0.044444444444444446,107.42222222222223,0)" xlink:href="#bs"/><use transform="matrix(0.044444444444444446,0,0,0.044444444444444446,117.15555555555557,0)" xlink:href="#aF"/><use transform="matrix(0.044444444444444446,0,0,0.044444444444444446,122.44444444444444,0)" xlink:href="#aK"/></g><g id="H"><use transform="matrix(0.0087890625,0,0,0.0087890625,0,0)" xlink:href="#bl"/><use transform="matrix(0.0087890625,0,0,0.0087890625,11.49609375,0)" xlink:href="#bh"/><use transform="matrix(0.0087890625,0,0,0.0087890625,17.9736328125,0)" xlink:href="#aW"/><use transform="matrix(0.0087890625,0,0,0.0087890625,28.7666015625,0)" xlink:href="#bo"/><use transform="matrix(0.0087890625,0,0,0.0087890625,39.8056640625,0)" xlink:href="#bh"/><use transform="matrix(0.0087890625,0,0,0.0087890625,46.58203125,0)" xlink:href="#ba"/><use transform="matrix(0.0087890625,0,0,0.0087890625,56.689453125,0)" xlink:href="#aZ"/><use transform="matrix(0.0087890625,0,0,0.0087890625,72.45703125,0)" xlink:href="#ba"/><use transform="matrix(0.0087890625,0,0,0.0087890625,82.564453125,0)" xlink:href="#aU"/><use transform="matrix(0.0087890625,0,0,0.0087890625,93.0234375,0)" xlink:href="#aV"/><use transform="matrix(0.0087890625,0,0,0.0087890625,103.130859375,0)" xlink:href="#aW"/></g><g id="I"><use transform="matrix(0.0087890625,0,0,0.0087890625,0,0)" xlink:href="#aX"/><use transform="matrix(0.0087890625,0,0,0.0087890625,11.021484375,0)" xlink:href="#aQ"/></g><g id="J"><use transform="matrix(0.0087890625,0,0,0.0087890625,0,0)" xlink:href="#aR"/><use transform="matrix(0.0087890625,0,0,0.0087890625,6.662109375,0)" xlink:href="#bc"/><use transform="matrix(0.0087890625,0,0,0.0087890625,17.3056640625,0)" xlink:href="#aT"/><use transform="matrix(0.0087890625,0,0,0.0087890625,27.9404296875,0)" xlink:href="#bb"/><use transform="matrix(0.0087890625,0,0,0.0087890625,38.2236328125,0)" xlink:href="#aS"/><use transform="matrix(0.0087890625,0,0,0.0087890625,42.5830078125,0)" xlink:href="#aW"/><use transform="matrix(0.0087890625,0,0,0.0087890625,53.3759765625,0)" xlink:href="#aT"/><use transform="matrix(0.0087890625,0,0,0.0087890625,64.0107421875,0)" xlink:href="#ba"/><use transform="matrix(0.0087890625,0,0,0.0087890625,74.1181640625,0)" xlink:href="#bj"/><use transform="matrix(0.0087890625,0,0,0.0087890625,78.4775390625,0)" xlink:href="#aS"/><use transform="matrix(0.0087890625,0,0,0.0087890625,82.8369140625,0)" xlink:href="#aX"/><use transform="matrix(0.0087890625,0,0,0.0087890625,93.8583984375,0)" xlink:href="#ba"/><use transform="matrix(0.0087890625,0,0,0.0087890625,103.9658203125,0)" xlink:href="#aX"/><use transform="matrix(0.0087890625,0,0,0.0087890625,114.9873046875,0)" xlink:href="#aQ"/><use transform="matrix(0.0087890625,0,0,0.0087890625,125.4814453125,0)" xlink:href="#bi"/></g><path d="M136-208V0H84v-208H4v-40h212v40h-80" id="bx"/><g id="K"><use transform="matrix(0.044444444444444446,0,0,0.044444444444444446,0,0)" xlink:href="#bx"/><use transform="matrix(0.044444444444444446,0,0,0.044444444444444446,8.533333333333335,0)" xlink:href="#aI"/><use transform="matrix(0.044444444444444446,0,0,0.044444444444444446,17.422222222222224,0)" xlink:href="#aO"/><use transform="matrix(0.044444444444444446,0,0,0.044444444444444446,26.311111111111114,0)" xlink:href="#aF"/><use transform="matrix(0.044444444444444446,0,0,0.044444444444444446,31.6,0)" xlink:href="#aI"/><use transform="matrix(0.044444444444444446,0,0,0.044444444444444446,40.488888888888894,0)" xlink:href="#aO"/></g><g id="L"><use transform="matrix(0.0087890625,0,0,0.0087890625,0,0)" xlink:href="#bl"/><use transform="matrix(0.0087890625,0,0,0.0087890625,11.49609375,0)" xlink:href="#bj"/><use transform="matrix(0.0087890625,0,0,0.0087890625,15.85546875,0)" xlink:href="#ba"/><use transform="matrix(0.0087890625,0,0,0.0087890625,25.962890625,0)" xlink:href="#aT"/><use transform="matrix(0.0087890625,0,0,0.0087890625,36.59765625,0)" xlink:href="#aW"/><use transform="matrix(0.0087890625,0,0,0.0087890625,47.390625,0)" xlink:href="#bi"/></g><path d="M98-1322v-168h1126v168H757V0H567v-1322H98" id="by"/><g id="M"><use transform="matrix(0.0087890625,0,0,0.0087890625,0,0)" xlink:href="#by"/><use transform="matrix(0.0087890625,0,0,0.0087890625,10.212890625,0)" xlink:href="#aQ"/><use transform="matrix(0.0087890625,0,0,0.0087890625,20.70703125,0)" xlink:href="#bi"/><use transform="matrix(0.0087890625,0,0,0.0087890625,30.2080078125,0)" xlink:href="#aY"/><use transform="matrix(0.0087890625,0,0,0.0087890625,35.9208984375,0)" xlink:href="#aQ"/><use transform="matrix(0.0087890625,0,0,0.0087890625,46.4150390625,0)" xlink:href="#bi"/></g><path d="M180 0v-1490h510c348 0 508 194 508 460 0 198-88 351-276 417L1256 0h-220L726-579c-117 2-238 0-356 1V0H180zm190-747h312c235 0 327-108 327-283 0-177-92-293-329-293H370v576" id="bz"/><g id="N"><use transform="matrix(0.0087890625,0,0,0.0087890625,0,0)" xlink:href="#bz"/><use transform="matrix(0.0087890625,0,0,0.0087890625,11.3203125,0)" xlink:href="#aQ"/><use transform="matrix(0.0087890625,0,0,0.0087890625,21.814453125,0)" xlink:href="#bo"/><use transform="matrix(0.0087890625,0,0,0.0087890625,32.853515625,0)" xlink:href="#aS"/><use transform="matrix(0.0087890625,0,0,0.0087890625,37.212890625,0)" xlink:href="#bi"/><use transform="matrix(0.0087890625,0,0,0.0087890625,46.7138671875,0)" xlink:href="#aY"/><use transform="matrix(0.0087890625,0,0,0.0087890625,52.6025390625,0)" xlink:href="#bh"/><use transform="matrix(0.0087890625,0,0,0.0087890625,59.080078125,0)" xlink:href="#aW"/></g><g id="O"><use transform="matrix(0.0087890625,0,0,0.0087890625,0,0)" xlink:href="#aY"/><use transform="matrix(0.0087890625,0,0,0.0087890625,5.712890625,0)" xlink:href="#aQ"/><use transform="matrix(0.0087890625,0,0,0.0087890625,16.20703125,0)" xlink:href="#bi"/><use transform="matrix(0.0087890625,0,0,0.0087890625,25.7080078125,0)" xlink:href="#aY"/><use transform="matrix(0.0087890625,0,0,0.0087890625,31.4208984375,0)" xlink:href="#aQ"/><use transform="matrix(0.0087890625,0,0,0.0087890625,41.9150390625,0)" xlink:href="#bi"/></g><g id="P"><use transform="matrix(0.0087890625,0,0,0.0087890625,0,0)" xlink:href="#bl"/><use transform="matrix(0.0087890625,0,0,0.0087890625,11.49609375,0)" xlink:href="#bj"/><use transform="matrix(0.0087890625,0,0,0.0087890625,15.85546875,0)" xlink:href="#ba"/><use transform="matrix(0.0087890625,0,0,0.0087890625,25.962890625,0)" xlink:href="#aT"/><use transform="matrix(0.0087890625,0,0,0.0087890625,36.59765625,0)" xlink:href="#aW"/></g><g id="Q"><use transform="matrix(0.0087890625,0,0,0.0087890625,0,0)" xlink:href="#bz"/><use transform="matrix(0.0087890625,0,0,0.0087890625,11.3203125,0)" xlink:href="#aQ"/><use transform="matrix(0.0087890625,0,0,0.0087890625,21.814453125,0)" xlink:href="#bo"/><use transform="matrix(0.0087890625,0,0,0.0087890625,32.853515625,0)" xlink:href="#aS"/><use transform="matrix(0.0087890625,0,0,0.0087890625,37.212890625,0)" xlink:href="#bi"/><use transform="matrix(0.0087890625,0,0,0.0087890625,46.7138671875,0)" xlink:href="#aY"/><use transform="matrix(0.0087890625,0,0,0.0087890625,52.6025390625,0)" xlink:href="#bh"/><use transform="matrix(0.0087890625,0,0,0.0087890625,59.080078125,0)" xlink:href="#aW"/></g></defs></g></svg>